<?xml version="1.0" encoding="utf-8"?>
<!-- Generator: Adobe Illustrator 22.0.1, SVG Export Plug-In . SVG Version: 6.00 Build 0)  -->
<svg version="1.1" id="Layer_1" xmlns="http://www.w3.org/2000/svg" xmlns:xlink="http://www.w3.org/1999/xlink" x="0px" y="0px"
	 viewBox="0 0 1920 1080" style="enable-background:new 0 0 1920 1080;" xml:space="preserve">
<style type="text/css">
	.st0{fill:none;}
	.st1{enable-background:new    ;}
	.st2{fill:#FFFFFF;}
	.st3{fill:none;stroke:#0A9DA1;stroke-width:4;stroke-miterlimit:10;}
	.st4{fill:#0A9DA1;}
	.st5{fill:#FFFFFF;stroke:#0A9DA1;stroke-width:4;stroke-miterlimit:10;}
	.st6{fill:#F9FFFF;}
</style>
<rect x="1162.7" y="48.3" class="st0" width="713" height="58.3"/>
<g class="st1">
	<path class="st2" d="M1233,101.6V48.3h16.2v39.3h20.2v14.1H1233z"/>
	<path class="st2" d="M1271.4,75c0-16.4,12.7-27.6,29.2-27.6s29.2,11.2,29.2,27.6s-12.7,27.6-29.2,27.6S1271.4,91.4,1271.4,75z
		 M1313.4,75c0-7.4-5-13.4-12.8-13.4c-7.8,0-12.8,5.9-12.8,13.4s5,13.4,12.8,13.4C1308.3,88.4,1313.4,82.4,1313.4,75z"/>
	<path class="st2" d="M1331.5,94.1l8.4-12c4,3.8,10,6.9,17.2,6.9c3,0,5.9-0.8,5.9-2.9c0-5.1-29.8,0.1-29.8-21
		c0-9,7.5-17.7,22.2-17.7c8.7,0,16.6,2.5,22.6,7.4l-8.6,11.4c-4.6-3.5-10.6-5.3-15.7-5.3c-3.2,0-4.1,1-4.1,2.4
		c0,5,29.7,0.7,29.7,20.6c0,11.8-8.7,18.6-23,18.6C1344.9,102.6,1337.1,99.2,1331.5,94.1z"/>
	<path class="st2" d="M1384.6,101.6V48.3h40.5v14.1h-24.3v5.3h23.8v14.1h-23.8v5.8h24.3v14.1H1384.6z"/>
	<path class="st2" d="M1461.6,101.6l-7.4-16.8h-5.8v16.8h-16.2V48.3h28.5c12.5,0,19.2,8.3,19.2,18.3c0,9.2-5.4,14.1-9.6,16.2
		l9.7,18.9H1461.6z M1463.5,66.5c0-2.9-2.6-4.2-5.3-4.2h-9.8v8.4h9.8C1461,70.8,1463.5,69.5,1463.5,66.5z"/>
	<path class="st2" d="M1506.9,101.6V48.3h32.4c11,0,15.8,7.4,15.8,13.6c0,6.6-3.9,11.1-9.1,12.2c5.8,0.9,10.2,6.2,10.2,13
		c0,7.4-5,14.5-15.8,14.5H1506.9z M1538.7,64.8c0-1.8-1.5-3-3.2-3h-12.5V68h12.5C1537.2,68,1538.7,66.7,1538.7,64.8z M1539.8,84.8
		c0-1.9-1.4-3.4-3.8-3.4h-13v6.8h13C1538.3,88.2,1539.8,86.8,1539.8,84.8z"/>
	<path class="st2" d="M1592,101.6l-7.4-16.8h-5.8v16.8h-16.2V48.3h28.5c12.5,0,19.2,8.3,19.2,18.3c0,9.2-5.4,14.1-9.6,16.2l9.7,18.9
		H1592z M1593.9,66.5c0-2.9-2.6-4.2-5.3-4.2h-9.8v8.4h9.8C1591.4,70.8,1593.9,69.5,1593.9,66.5z"/>
	<path class="st2" d="M1652.5,101.6l-1.9-6.2h-19.2l-1.9,6.2h-18.3l19.7-53.4h20.3l19.7,53.4H1652.5z M1641,64.1l-5.3,17.2h10.6
		L1641,64.1z"/>
	<path class="st2" d="M1668.4,75c0-16.5,12.6-27.6,29.4-27.6c14,0,21,8.2,24.2,15.5l-13.9,6.5c-1.4-4.2-5.5-7.8-10.3-7.8
		c-7.8,0-13,5.9-13,13.4s5.2,13.4,13,13.4c4.8,0,9-3.6,10.3-7.8L1722,87c-3.1,7.1-10.2,15.6-24.2,15.6
		C1681.1,102.6,1668.4,91.4,1668.4,75z"/>
	<path class="st2" d="M1758.2,101.6l-12-18.8l-3,4v14.8h-16.2V48.3h16.2v20l14-20h19.8l-20.2,24.8l21,28.6H1758.2z"/>
	<path class="st2" d="M1780.7,101.6V48.3h40.5v14.1h-24.3v5.3h23.8v14.1h-23.8v5.8h24.3v14.1H1780.7z"/>
	<path class="st2" d="M1839.9,101.6V62.4h-14.3V48.3h44.7v14.1H1856v39.3H1839.9z"/>
</g>
<polyline class="st3" points="580.4,686.1 580.4,904.3 522.4,904.3 "/>
<g>
	<g>
		<polyline class="st3" points="1804.4,345 1804.4,533.7 1746.4,533.7 		"/>
		<g>
			<polygon class="st4" points="1784.5,350.8 1804.4,316.3 1824.3,350.8 			"/>
		</g>
	</g>
</g>
<rect x="230.5" y="851.3" class="st5" width="291.9" height="53.2"/>
<rect x="230.5" y="904.4" class="st5" width="291.9" height="53.2"/>
<rect x="638.5" y="769" class="st5" width="291.9" height="53.2"/>
<rect x="638.5" y="822.2" class="st5" width="291.9" height="53.2"/>
<polyline class="st3" points="228.9,904.7 176.2,904.7 176.2,686.1 "/>
<line class="st3" x1="638.5" y1="822.1" x2="580.4" y2="822.1"/>
<line class="st3" x1="1046.5" y1="613.4" x2="988.4" y2="613.4"/>
<polyline class="st3" points="580.4,309.3 580.4,524.1 522.4,524.1 "/>
<rect x="230.5" y="471" class="st5" width="291.9" height="53.2"/>
<rect x="230.5" y="524.2" class="st5" width="291.9" height="53.2"/>
<rect x="638.5" y="388.7" class="st5" width="291.9" height="53.2"/>
<rect x="638.5" y="441.9" class="st5" width="291.9" height="53.2"/>
<rect x="1046.5" y="560.2" class="st5" width="291.9" height="53.2"/>
<rect x="1046.5" y="613.4" class="st5" width="291.9" height="53.2"/>
<rect x="1454.4" y="480.6" class="st5" width="291.9" height="53.2"/>
<rect x="1454.4" y="533.7" class="st5" width="291.9" height="53.2"/>
<polyline class="st3" points="228.9,524.4 176.2,524.4 176.2,309.3 "/>
<line class="st3" x1="638.5" y1="441.9" x2="580.4" y2="441.9"/>
<polyline class="st3" points="1396.4,316.3 1396.4,616 1338.4,616 "/>
<line class="st3" x1="1454.4" y1="533.7" x2="1396.4" y2="533.7"/>
<polyline class="st3" points="930.4,441.9 988.4,441.9 988.4,822.1 930.4,822.1 "/>
<g>
	<path class="st6" d="M47.7,296v-26h7.9v19.1h9.9v6.9H47.7z"/>
	<path class="st6" d="M66.4,283c0-8,6.2-13.4,14.2-13.4s14.2,5.5,14.2,13.4c0,8-6.2,13.4-14.2,13.4S66.4,291,66.4,283z M86.9,283
		c0-3.6-2.5-6.5-6.2-6.5c-3.8,0-6.2,2.9-6.2,6.5s2.5,6.5,6.2,6.5S86.9,286.6,86.9,283z"/>
	<path class="st6" d="M95.7,292.3l4.1-5.8c1.9,1.9,4.9,3.4,8.4,3.4c1.5,0,2.9-0.4,2.9-1.4c0-2.5-14.5,0-14.5-10.2
		c0-4.4,3.7-8.6,10.8-8.6c4.2,0,8.1,1.2,11,3.6l-4.2,5.6c-2.3-1.7-5.2-2.6-7.6-2.6c-1.6,0-2,0.5-2,1.2c0,2.5,14.5,0.4,14.5,10
		c0,5.7-4.2,9-11.2,9C102.2,296.4,98.5,294.8,95.7,292.3z"/>
	<path class="st6" d="M121.6,296v-26h19.7v6.9h-11.8v2.6h11.6v6.9h-11.6v2.8h11.8v6.9L121.6,296L121.6,296z"/>
	<path class="st6" d="M159.1,296l-3.6-8.2h-2.8v8.2h-7.9v-26h13.9c6.1,0,9.4,4.1,9.4,8.9c0,4.5-2.6,6.9-4.7,7.9l4.7,9.2H159.1z
		 M160,278.9c0-1.4-1.2-2-2.6-2h-4.7v4.1h4.8C158.8,280.9,160,280.3,160,278.9z"/>
	<path class="st6" d="M179.8,283c0-8,6.2-13.4,14.2-13.4s14.2,5.5,14.2,13.4c0,8-6.2,13.4-14.2,13.4S179.8,291,179.8,283z
		 M200.2,283c0-3.6-2.5-6.5-6.2-6.5c-3.8,0-6.2,2.9-6.2,6.5s2.5,6.5,6.2,6.5C197.8,289.5,200.2,286.6,200.2,283z"/>
	<path class="st6" d="M211,296v-26h19.7v6.9h-11.8v2.6h11.6v6.9h-11.6v9.7H211V296z"/>
	<path class="st6" d="M250.8,296v-16l-4.4,4.4l-4.4-4.6l9.9-9.7h6.8v26L250.8,296L250.8,296z"/>
	<path class="st6" d="M260.9,292.3l4.1-5.8c1.9,1.9,4.9,3.4,8.4,3.4c1.5,0,2.9-0.4,2.9-1.4c0-2.5-14.5,0-14.5-10.2
		c0-4.4,3.7-8.6,10.8-8.6c4.2,0,8.1,1.2,11,3.6l-4.2,5.6c-2.3-1.7-5.2-2.6-7.6-2.6c-1.6,0-2,0.5-2,1.2c0,2.5,14.5,0.4,14.5,10
		c0,5.7-4.2,9-11.2,9C267.4,296.4,263.6,294.8,260.9,292.3z"/>
	<path class="st6" d="M291.6,296v-19.1h-7V270h21.8v6.9h-6.9V296H291.6z"/>
</g>
<g>
	<path class="st6" d="M47.7,672.8v-26h7.9v19.1h9.9v6.9H47.7z"/>
	<path class="st6" d="M66.4,659.8c0-8,6.2-13.4,14.2-13.4s14.2,5.5,14.2,13.4s-6.2,13.4-14.2,13.4S66.4,667.8,66.4,659.8z
		 M86.9,659.8c0-3.6-2.5-6.5-6.2-6.5c-3.8,0-6.2,2.9-6.2,6.5s2.5,6.5,6.2,6.5S86.9,663.4,86.9,659.8z"/>
	<path class="st6" d="M95.7,669.1l4.1-5.8c1.9,1.9,4.9,3.4,8.4,3.4c1.5,0,2.9-0.4,2.9-1.4c0-2.5-14.5,0-14.5-10.2
		c0-4.4,3.7-8.6,10.8-8.6c4.2,0,8.1,1.2,11,3.6l-4.2,5.6c-2.3-1.7-5.2-2.6-7.6-2.6c-1.6,0-2,0.5-2,1.2c0,2.5,14.5,0.4,14.5,10
		c0,5.7-4.2,9-11.2,9C102.2,673.2,98.5,671.6,95.7,669.1z"/>
	<path class="st6" d="M121.6,672.8v-26h19.7v6.9h-11.8v2.6h11.6v6.9h-11.6v2.8h11.8v6.9h-19.7V672.8z"/>
	<path class="st6" d="M159.1,672.8l-3.6-8.2h-2.8v8.2h-7.9v-26h13.9c6.1,0,9.4,4.1,9.4,8.9c0,4.5-2.6,6.9-4.7,7.9l4.7,9.2
		L159.1,672.8L159.1,672.8z M160,655.7c0-1.4-1.2-2-2.6-2h-4.7v4.1h4.8C158.8,657.7,160,657.1,160,655.7z"/>
	<path class="st6" d="M179.8,659.8c0-8,6.2-13.4,14.2-13.4s14.2,5.5,14.2,13.4s-6.2,13.4-14.2,13.4
		C186,673.2,179.8,667.8,179.8,659.8z M200.2,659.8c0-3.6-2.5-6.5-6.2-6.5c-3.8,0-6.2,2.9-6.2,6.5s2.5,6.5,6.2,6.5
		C197.8,666.3,200.2,663.4,200.2,659.8z"/>
	<path class="st6" d="M211,672.8v-26h19.7v6.9h-11.8v2.6h11.6v6.9h-11.6v9.7H211V672.8z"/>
	<path class="st6" d="M250.8,672.8v-16l-4.4,4.4l-4.4-4.6l9.9-9.7h6.8v26h-7.9V672.8z"/>
	<path class="st6" d="M260.9,669.1l4.1-5.8c1.9,1.9,4.9,3.4,8.4,3.4c1.5,0,2.9-0.4,2.9-1.4c0-2.5-14.5,0-14.5-10.2
		c0-4.4,3.7-8.6,10.8-8.6c4.2,0,8.1,1.2,11,3.6l-4.2,5.6c-2.3-1.7-5.2-2.6-7.6-2.6c-1.6,0-2,0.5-2,1.2c0,2.5,14.5,0.4,14.5,10
		c0,5.7-4.2,9-11.2,9C267.4,673.2,263.6,671.6,260.9,669.1z"/>
	<path class="st6" d="M291.6,672.8v-19.2h-7v-6.9h21.8v6.9h-6.9v19.1h-7.9V672.8z"/>
</g>
<g>
	<path class="st6" d="M443.9,296v-26h7.9v19.1h9.9v6.9H443.9z"/>
	<path class="st6" d="M462.6,283c0-8,6.2-13.4,14.2-13.4S491,275.1,491,283c0,8-6.2,13.4-14.2,13.4S462.6,291,462.6,283z M483.1,283
		c0-3.6-2.5-6.5-6.2-6.5c-3.8,0-6.2,2.9-6.2,6.5s2.5,6.5,6.2,6.5S483.1,286.6,483.1,283z"/>
	<path class="st6" d="M491.9,292.3l4.1-5.8c1.9,1.9,4.9,3.4,8.4,3.4c1.5,0,2.9-0.4,2.9-1.4c0-2.5-14.5,0-14.5-10.2
		c0-4.4,3.7-8.6,10.8-8.6c4.2,0,8.1,1.2,11,3.6l-4.2,5.6c-2.3-1.7-5.2-2.6-7.6-2.6c-1.6,0-2,0.5-2,1.2c0,2.5,14.5,0.4,14.5,10
		c0,5.7-4.2,9-11.2,9C498.4,296.4,494.6,294.8,491.9,292.3z"/>
	<path class="st6" d="M517.8,296v-26h19.7v6.9h-11.8v2.6h11.6v6.9h-11.6v2.8h11.8v6.9L517.8,296L517.8,296z"/>
	<path class="st6" d="M555.3,296l-3.6-8.2h-2.8v8.2H541v-26h13.9c6.1,0,9.4,4.1,9.4,8.9c0,4.5-2.6,6.9-4.7,7.9l4.7,9.2H555.3z
		 M556.2,278.9c0-1.4-1.2-2-2.6-2h-4.8v4.1h4.8C555,280.9,556.2,280.3,556.2,278.9z"/>
	<path class="st6" d="M575.9,283c0-8,6.2-13.4,14.2-13.4s14.2,5.5,14.2,13.4c0,8-6.2,13.4-14.2,13.4S575.9,291,575.9,283z
		 M596.4,283c0-3.6-2.5-6.5-6.2-6.5c-3.8,0-6.2,2.9-6.2,6.5s2.5,6.5,6.2,6.5C594,289.5,596.4,286.6,596.4,283z"/>
	<path class="st6" d="M607.2,296v-26h19.7v6.9h-11.8v2.6h11.6v6.9h-11.6v9.7h-7.9V296z"/>
	<path class="st6" d="M639.7,296v-6.1c11.9-8.4,13-9.4,13-11.3c0-1.2-1.3-2-3-2c-2.8,0-4.9,1-6.9,2.7l-4.3-5.2c3-3.2,7.4-4.4,11-4.4
		c6.7,0,11.1,3.7,11.1,9c0,3.5-2,6.5-8.2,10.6h8.5v6.9h-21.2V296z"/>
	<path class="st6" d="M681.6,296l-9.6-13.2V296h-7.9v-26h8.1l9,12.3V270h7.9v26H681.6z"/>
	<path class="st6" d="M693.4,296v-26H705c8.2,0,14.3,4.7,14.3,13s-6.1,13-14.2,13H693.4z M711.2,282.9c0-3.5-2-6.1-6.2-6.1h-3.8
		v12.3h3.7C708.9,289.1,711.2,286.2,711.2,282.9z"/>
</g>
<g>
	<path class="st6" d="M1260.3,296v-26h7.9v19.1h9.9v6.9H1260.3z"/>
	<path class="st6" d="M1279,283c0-8,6.2-13.4,14.2-13.4s14.2,5.5,14.2,13.4c0,8-6.2,13.4-14.2,13.4S1279,291,1279,283z M1299.5,283
		c0-3.6-2.5-6.5-6.2-6.5c-3.8,0-6.2,2.9-6.2,6.5s2.5,6.5,6.2,6.5S1299.5,286.6,1299.5,283z"/>
	<path class="st6" d="M1308.3,292.3l4.1-5.8c1.9,1.9,4.9,3.4,8.4,3.4c1.5,0,2.9-0.4,2.9-1.4c0-2.5-14.5,0-14.5-10.2
		c0-4.4,3.7-8.6,10.8-8.6c4.2,0,8.1,1.2,11,3.6l-4.2,5.6c-2.3-1.7-5.2-2.6-7.6-2.6c-1.6,0-2,0.5-2,1.2c0,2.5,14.5,0.4,14.5,10
		c0,5.7-4.2,9-11.2,9C1314.9,296.4,1311.1,294.8,1308.3,292.3z"/>
	<path class="st6" d="M1334.2,296v-26h19.7v6.9h-11.8v2.6h11.6v6.9h-11.6v2.8h11.8v6.9L1334.2,296L1334.2,296z"/>
	<path class="st6" d="M1371.7,296l-3.6-8.2h-2.8v8.2h-7.9v-26h13.9c6.1,0,9.4,4.1,9.4,8.9c0,4.5-2.6,6.9-4.7,7.9l4.7,9.2H1371.7z
		 M1372.7,278.9c0-1.4-1.2-2-2.6-2h-4.8v4.1h4.8C1371.4,280.9,1372.7,280.3,1372.7,278.9z"/>
	<path class="st6" d="M1392.4,283c0-8,6.2-13.4,14.2-13.4s14.2,5.5,14.2,13.4c0,8-6.2,13.4-14.2,13.4S1392.4,291,1392.4,283z
		 M1412.9,283c0-3.6-2.5-6.5-6.2-6.5c-3.8,0-6.2,2.9-6.2,6.5s2.5,6.5,6.2,6.5S1412.9,286.6,1412.9,283z"/>
	<path class="st6" d="M1423.7,296v-26h19.7v6.9h-11.8v2.6h11.6v6.9h-11.6v9.7h-7.9V296z"/>
	<path class="st6" d="M1455,292.4l3.9-5.4c2,1.8,5.1,2.5,7.1,2.5c2.6,0,3.8-0.8,3.8-1.8c0-0.9-0.5-1.4-4-1.4c-1.1,0-3.4,0-3.8,0.1
		v-7c0.5,0,2.8,0,3.8,0c2.5,0,3.6-0.5,3.6-1.3c0-1.2-1.6-1.7-3.9-1.7c-2.2,0-4.6,0.8-6.4,2.3l-3.7-4.9c2.3-2.5,5.8-4.3,10.9-4.3
		c7.2,0,10.8,2.9,10.8,7.2c0,2.8-2.4,5.2-5.7,5.8c2.9,0.3,6.2,2.5,6.2,6.1c0,4.6-4.6,7.8-11.3,7.8
		C1461.1,296.4,1457.2,294.7,1455,292.4z"/>
	<path class="st6" d="M1495,296l-3.6-8.2h-2.8v8.2h-7.9v-26h13.9c6.1,0,9.4,4.1,9.4,8.9c0,4.5-2.6,6.9-4.7,7.9l4.7,9.2H1495z
		 M1496,278.9c0-1.4-1.2-2-2.6-2h-4.8v4.1h4.8C1494.7,280.9,1496,280.3,1496,278.9z"/>
	<path class="st6" d="M1507.1,296v-26h11.6c8.2,0,14.3,4.7,14.3,13s-6.1,13-14.2,13H1507.1z M1525,282.9c0-3.5-2-6.1-6.2-6.1h-3.8
		v12.3h3.7C1522.7,289.1,1525,286.2,1525,282.9z"/>
</g>
<g>
	<path class="st6" d="M1737.6,296v-26h19.7v6.9h-11.8v2.6h11.6v6.9h-11.6v9.7h-7.9V296z"/>
	<path class="st6" d="M1760.7,296v-26h7.9v26H1760.7z"/>
	<path class="st6" d="M1790.3,296l-9.6-13.2V296h-7.9v-26h8.1l9,12.3V270h7.9v26H1790.3z"/>
	<path class="st6" d="M1819.4,296l-0.9-3h-9.4l-0.9,3h-8.9l9.6-26h9.9l9.6,26H1819.4z M1813.8,277.7l-2.6,8.4h5.1L1813.8,277.7z"/>
	<path class="st6" d="M1829.7,296v-26h7.9v19.1h9.9v6.9H1829.7z"/>
	<path class="st6" d="M1848.6,292.3l4.1-5.8c1.9,1.9,4.9,3.4,8.4,3.4c1.5,0,2.9-0.4,2.9-1.4c0-2.5-14.5,0-14.5-10.2
		c0-4.4,3.7-8.6,10.8-8.6c4.2,0,8.1,1.2,11,3.6l-4.2,5.6c-2.3-1.7-5.2-2.6-7.6-2.6c-1.6,0-2,0.5-2,1.2c0,2.5,14.5,0.4,14.5,10
		c0,5.7-4.2,9-11.2,9C1855.2,296.4,1851.4,294.8,1848.6,292.3z"/>
</g>
<g>
	<path class="st6" d="M443.9,672.8v-26h7.9v19.1h9.9v6.9H443.9z"/>
	<path class="st6" d="M462.6,659.8c0-8,6.2-13.4,14.2-13.4s14.2,5.5,14.2,13.4s-6.2,13.4-14.2,13.4S462.6,667.8,462.6,659.8z
		 M483.1,659.8c0-3.6-2.5-6.5-6.2-6.5c-3.8,0-6.2,2.9-6.2,6.5s2.5,6.5,6.2,6.5S483.1,663.4,483.1,659.8z"/>
	<path class="st6" d="M491.9,669.1l4.1-5.8c1.9,1.9,4.9,3.4,8.4,3.4c1.5,0,2.9-0.4,2.9-1.4c0-2.5-14.5,0-14.5-10.2
		c0-4.4,3.7-8.6,10.8-8.6c4.2,0,8.1,1.2,11,3.6l-4.2,5.6c-2.3-1.7-5.2-2.6-7.6-2.6c-1.6,0-2,0.5-2,1.2c0,2.5,14.5,0.4,14.5,10
		c0,5.7-4.2,9-11.2,9C498.4,673.2,494.6,671.6,491.9,669.1z"/>
	<path class="st6" d="M517.8,672.8v-26h19.7v6.9h-11.8v2.6h11.6v6.9h-11.6v2.8h11.8v6.9h-19.7V672.8z"/>
	<path class="st6" d="M555.3,672.8l-3.6-8.2h-2.8v8.2H541v-26h13.9c6.1,0,9.4,4.1,9.4,8.9c0,4.5-2.6,6.9-4.7,7.9l4.7,9.2
		L555.3,672.8L555.3,672.8z M556.2,655.7c0-1.4-1.2-2-2.6-2h-4.8v4.1h4.8C555,657.7,556.2,657.1,556.2,655.7z"/>
	<path class="st6" d="M575.9,659.8c0-8,6.2-13.4,14.2-13.4s14.2,5.5,14.2,13.4s-6.2,13.4-14.2,13.4S575.9,667.8,575.9,659.8z
		 M596.4,659.8c0-3.6-2.5-6.5-6.2-6.5c-3.8,0-6.2,2.9-6.2,6.5s2.5,6.5,6.2,6.5C594,666.3,596.4,663.4,596.4,659.8z"/>
	<path class="st6" d="M607.2,672.8v-26h19.7v6.9h-11.8v2.6h11.6v6.9h-11.6v9.7h-7.9V672.8z"/>
	<path class="st6" d="M639.7,672.8v-6.1c11.9-8.4,13-9.4,13-11.3c0-1.2-1.3-2-3-2c-2.8,0-4.9,1-6.9,2.7l-4.3-5.2
		c3-3.2,7.4-4.4,11-4.4c6.7,0,11.1,3.7,11.1,9c0,3.5-2,6.5-8.2,10.6h8.5v6.9h-21.2V672.8z"/>
	<path class="st6" d="M681.6,672.8l-9.6-13.2v13.2h-7.9v-26h8.1l9,12.3v-12.3h7.9v26H681.6z"/>
	<path class="st6" d="M693.4,672.8v-26H705c8.2,0,14.3,4.7,14.3,13s-6.1,13-14.2,13H693.4z M711.2,659.8c0-3.5-2-6.1-6.2-6.1h-3.8
		V666h3.7C708.9,665.9,711.2,663,711.2,659.8z"/>
</g>
<g id="Layer_2_1_">
</g>
</svg>
