<?xml version="1.0" encoding="utf-8"?>
<!-- Generator: Adobe Illustrator 22.0.1, SVG Export Plug-In . SVG Version: 6.00 Build 0)  -->
<svg version="1.1" id="Layer_1" xmlns="http://www.w3.org/2000/svg" xmlns:xlink="http://www.w3.org/1999/xlink" x="0px" y="0px"
	 viewBox="0 0 1920 1080" style="enable-background:new 0 0 1920 1080;" xml:space="preserve">
<style type="text/css">
	.st0{fill:#FFFFFF;stroke:#0A9DA1;stroke-width:4;stroke-miterlimit:10;}
	.st1{fill:none;stroke:#0A9DA1;stroke-width:4;stroke-miterlimit:10;}
	.st2{fill:#0A9DA1;}
	.st3{fill:none;}
	.st4{enable-background:new    ;}
	.st5{fill:#FFFFFF;}
</style>
<rect x="47" y="262.9" class="st0" width="337" height="61.4"/>
<rect x="47" y="324.2" class="st0" width="337" height="61.4"/>
<rect x="47" y="453.7" class="st0" width="337" height="61.4"/>
<rect x="47" y="515" class="st0" width="337" height="61.4"/>
<rect x="518.8" y="361.6" class="st0" width="338.2" height="61.4"/>
<rect x="518.8" y="423" class="st0" width="338.2" height="61.4"/>
<rect x="518.8" y="743.2" class="st0" width="338.2" height="61.4"/>
<rect x="518.8" y="804.6" class="st0" width="338.2" height="61.4"/>
<rect x="991" y="549.9" class="st0" width="338.4" height="61.4"/>
<rect x="991" y="611.3" class="st0" width="338.4" height="61.4"/>
<rect x="47" y="644.5" class="st0" width="337" height="61.4"/>
<rect x="47" y="705.8" class="st0" width="337" height="61.4"/>
<rect x="47" y="835.3" class="st0" width="337" height="61.4"/>
<rect x="47" y="896.6" class="st0" width="337" height="61.4"/>
<polyline class="st1" points="316.6,896.4 451.4,896.4 451.4,705.6 316.6,705.6 "/>
<polyline class="st1" points="316.6,514.9 451.4,514.9 451.4,324.1 316.6,324.1 "/>
<polyline class="st1" points="789.1,804.8 923.9,804.8 923.9,423.3 789.1,423.3 "/>
<line class="st1" x1="451.7" y1="423.3" x2="586.2" y2="423.3"/>
<line class="st1" x1="451.7" y1="804.8" x2="586.2" y2="804.8"/>
<line class="st1" x1="923.9" y1="611.5" x2="1058.7" y2="611.5"/>
<g>
	<g>
		<line class="st1" x1="1330.6" y1="611.5" x2="1436.7" y2="611.5"/>
		<g>
			<polygon class="st2" points="1430.9,631.5 1465.4,611.5 1430.9,591.6 			"/>
		</g>
	</g>
</g>
<g>
	<g>
		<line class="st1" x1="1669" y1="848.9" x2="1669" y2="742.8"/>
		<g>
			<polygon class="st2" points="1689,748.6 1669,714.1 1649.1,748.6 			"/>
		</g>
	</g>
</g>
<rect x="1465.1" y="584.2" class="st3" width="407.9" height="54.8"/>
<g class="st4">
	<path class="st5" d="M1557.5,637.6v-53.4h40.5v14.1h-24.3v5.3h23.8v14.1h-23.8v19.9H1557.5z"/>
	<path class="st5" d="M1604.8,637.6v-53.4h16.2v53.4H1604.8z"/>
	<path class="st5" d="M1665.5,637.6l-19.7-27v27h-16.2v-53.4h16.6l18.6,25.3v-25.3h16.2v53.4H1665.5z"/>
	<path class="st5" d="M1725.2,637.6l-1.9-6.2h-19.2l-1.9,6.2h-18.3l19.7-53.4h20.3l19.7,53.4H1725.2z M1713.7,600l-5.3,17.2h10.6
		L1713.7,600z"/>
	<path class="st5" d="M1746.4,637.6v-53.4h16.2v39.3h20.2v14.1H1746.4z"/>
</g>
<rect x="1240" y="42.3" class="st3" width="633" height="58.3"/>
<g class="st4">
	<path class="st5" d="M1319,95.7V63.6l-11.9,32.1h-7.2L1288,63.6v32.1h-16.2V42.3h22.3l9.4,25.6l9.4-25.6h22.3v53.4H1319z"/>
	<path class="st5" d="M1379.4,95.7l-1.9-6.2h-19.2l-1.9,6.2H1338l19.7-53.4h20.3l19.7,53.4H1379.4z M1367.9,58.1l-5.3,17.2h10.6
		L1367.9,58.1z"/>
	<path class="st5" d="M1400.6,95.7V42.3h16.2v53.4H1400.6z"/>
	<path class="st5" d="M1461.2,95.7l-19.7-27v27h-16.2V42.3h16.6l18.6,25.3V42.3h16.2v53.4H1461.2z"/>
	<path class="st5" d="M1505.8,95.7V42.3h32.4c11,0,15.8,7.4,15.8,13.6c0,6.6-3.9,11.1-9.1,12.2c5.8,0.9,10.2,6.2,10.2,13
		c0,7.4-5,14.5-15.8,14.5H1505.8z M1537.6,58.8c0-1.8-1.5-3-3.2-3H1522V62h12.5C1536.1,62,1537.6,60.7,1537.6,58.8z M1538.7,78.9
		c0-1.9-1.4-3.4-3.8-3.4h-13v6.8h13C1537.2,82.2,1538.7,80.9,1538.7,78.9z"/>
	<path class="st5" d="M1590.9,95.7l-7.4-16.8h-5.8v16.8h-16.2V42.3h28.5c12.5,0,19.2,8.3,19.2,18.3c0,9.2-5.4,14.1-9.6,16.2
		l9.7,18.9H1590.9z M1592.8,60.5c0-2.9-2.6-4.2-5.3-4.2h-9.8v8.4h9.8C1590.3,64.8,1592.8,63.5,1592.8,60.5z"/>
	<path class="st5" d="M1651.4,95.7l-1.9-6.2h-19.2l-1.9,6.2H1610l19.7-53.4h20.3l19.7,53.4H1651.4z M1639.9,58.1l-5.3,17.2h10.6
		L1639.9,58.1z"/>
	<path class="st5" d="M1667.3,69c0-16.5,12.6-27.6,29.4-27.6c14,0,21,8.2,24.2,15.5l-13.9,6.5c-1.4-4.2-5.5-7.8-10.3-7.8
		c-7.8,0-13,5.9-13,13.4s5.2,13.4,13,13.4c4.8,0,9-3.6,10.3-7.8l13.9,6.4c-3.1,7.1-10.2,15.6-24.2,15.6
		C1680,96.6,1667.3,85.4,1667.3,69z"/>
	<path class="st5" d="M1757.1,95.7l-12-18.8l-3,4v14.8H1726V42.3h16.2v20l14-20h19.8l-20.2,24.8l21,28.6H1757.1z"/>
	<path class="st5" d="M1779.6,95.7V42.3h40.5v14.1h-24.3v5.3h23.8v14.1h-23.8v5.8h24.3v14.1H1779.6z"/>
	<path class="st5" d="M1838.8,95.7V56.4h-14.3V42.3h44.7v14.1h-14.2v39.3H1838.8z"/>
</g>
<rect x="44" y="163.3" class="st3" width="340.6" height="44.7"/>
<g class="st4">
	<path class="st5" d="M124.5,196.6l-4.6-10.5h-3.7v10.5h-10.1v-33.4H124c7.8,0,12,5.2,12,11.5c0,5.8-3.4,8.8-6,10.1l6.1,11.8H124.5z
		 M125.7,174.7c0-1.8-1.6-2.6-3.3-2.6h-6.2v5.3h6.2C124.1,177.3,125.7,176.5,125.7,174.7z"/>
	<path class="st5" d="M138.3,180c0-10.2,8-17.3,18.3-17.3c10.3,0,18.3,7,18.3,17.3c0,10.3-8,17.3-18.3,17.3
		C146.2,197.2,138.3,190.2,138.3,180z M164.5,180c0-4.7-3.2-8.4-8-8.4c-4.9,0-8,3.7-8,8.4s3.1,8.4,8,8.4
		C161.4,188.3,164.5,184.6,164.5,180z"/>
	<path class="st5" d="M178.4,182.9v-19.7h10.3v19.3c0,3.2,2.1,5.8,6.3,5.8c4.1,0,6.2-2.5,6.2-5.8v-19.3h10.3v19.6
		c0,8.3-5.2,14.4-16.5,14.4S178.4,191.2,178.4,182.9z"/>
	<path class="st5" d="M239.1,196.6l-12.3-16.9v16.9h-10.1v-33.4h10.4l11.6,15.8v-15.8h10.1v33.4H239.1z"/>
	<path class="st5" d="M254.2,196.6v-33.4h14.9c10.5,0,18.3,6,18.3,16.7s-7.8,16.7-18.3,16.7H254.2z M277.2,179.9
		c0-4.5-2.6-7.9-8-7.9h-4.9v15.8h4.8C274.2,187.8,277.2,184.1,277.2,179.9z"/>
	<path class="st5" d="M312.4,196.6v-20.5l-5.7,5.6l-5.7-6l12.8-12.5h8.7v33.4H312.4z"/>
</g>
<rect x="518" y="262.3" class="st3" width="340.6" height="38.7"/>
<g class="st4">
	<path class="st5" d="M595.3,295.6l-4.6-10.5H587v10.5h-10.1v-33.4h17.8c7.8,0,12,5.2,12,11.5c0,5.8-3.4,8.8-6,10.1l6.1,11.8H595.3z
		 M596.5,273.7c0-1.8-1.6-2.6-3.3-2.6H587v5.3h6.2C594.9,276.3,596.5,275.5,596.5,273.7z"/>
	<path class="st5" d="M609,279c0-10.2,8-17.3,18.3-17.3c10.3,0,18.3,7,18.3,17.3c0,10.3-8,17.3-18.3,17.3
		C617,296.2,609,289.2,609,279z M635.3,279c0-4.7-3.2-8.4-8-8.4c-4.9,0-8,3.7-8,8.4s3.1,8.4,8,8.4
		C632.1,287.3,635.3,283.6,635.3,279z"/>
	<path class="st5" d="M649.1,281.9v-19.7h10.3v19.3c0,3.2,2.1,5.8,6.3,5.8c4.1,0,6.2-2.5,6.2-5.8v-19.3h10.3v19.6
		c0,8.3-5.2,14.4-16.5,14.4S649.1,290.2,649.1,281.9z"/>
	<path class="st5" d="M709.9,295.6l-12.3-16.9v16.9h-10.1v-33.4h10.4l11.6,15.8v-15.8h10.1v33.4H709.9z"/>
	<path class="st5" d="M725,295.6v-33.4h14.9c10.5,0,18.3,6,18.3,16.7s-7.8,16.7-18.3,16.7H725z M747.9,278.9c0-4.5-2.6-7.9-8-7.9
		h-4.9v15.8h4.8C744.9,286.8,747.9,283.1,747.9,278.9z"/>
	<path class="st5" d="M773.9,295.6v-7.9c15.3-10.8,16.7-12,16.7-14.5c0-1.6-1.7-2.6-3.9-2.6c-3.6,0-6.3,1.3-8.8,3.5l-5.5-6.7
		c3.9-4.1,9.5-5.7,14.1-5.7c8.7,0,14.3,4.8,14.3,11.5c0,4.6-2.6,8.3-10.6,13.6h10.9v8.8H773.9z"/>
</g>
<rect x="990" y="450.3" class="st3" width="340.6" height="38.7"/>
<g class="st4">
	<path class="st5" d="M1067.2,483.6l-4.6-10.5h-3.7v10.5h-10.1v-33.4h17.8c7.8,0,12,5.2,12,11.5c0,5.8-3.4,8.8-6,10.1l6.1,11.8
		H1067.2z M1068.4,461.7c0-1.8-1.6-2.6-3.3-2.6h-6.2v5.3h6.2C1066.8,464.3,1068.4,463.5,1068.4,461.7z"/>
	<path class="st5" d="M1080.9,467c0-10.2,8-17.3,18.3-17.3c10.3,0,18.2,7,18.2,17.3c0,10.3-8,17.3-18.2,17.3
		C1088.9,484.2,1080.9,477.2,1080.9,467z M1107.2,467c0-4.7-3.2-8.4-8-8.4c-4.9,0-8,3.7-8,8.4s3.1,8.4,8,8.4
		C1104,475.3,1107.2,471.6,1107.2,467z"/>
	<path class="st5" d="M1121,469.9v-19.7h10.2v19.3c0,3.2,2.1,5.8,6.3,5.8c4.1,0,6.2-2.5,6.2-5.8v-19.3h10.3v19.6
		c0,8.3-5.2,14.4-16.5,14.4S1121,478.2,1121,469.9z"/>
	<path class="st5" d="M1181.8,483.6l-12.3-16.9v16.9h-10.1v-33.4h10.4l11.6,15.8v-15.8h10.1v33.4H1181.8z"/>
	<path class="st5" d="M1196.9,483.6v-33.4h14.9c10.5,0,18.3,6,18.3,16.7s-7.8,16.7-18.3,16.7H1196.9z M1219.8,466.9
		c0-4.5-2.6-7.9-8-7.9h-4.8v15.8h4.8C1216.8,474.8,1219.8,471.1,1219.8,466.9z"/>
	<path class="st5" d="M1244.3,479l5-6.9c2.6,2.2,6.5,3.2,9.1,3.2c3.3,0,4.9-1,4.9-2.2c0-1.2-0.7-1.8-5.2-1.8c-1.5,0-4.4,0-4.9,0.1
		v-9c0.6,0,3.6,0,4.9,0c3.2,0,4.6-0.6,4.6-1.7c0-1.5-2-2.1-5-2.1c-2.9,0-5.9,1-8.2,2.9l-4.8-6.3c3-3.2,7.5-5.5,14-5.5
		c9.2,0,13.9,3.8,13.9,9.3c0,3.5-3.1,6.7-7.4,7.4c3.7,0.4,7.9,3.2,7.9,7.8c0,6-5.9,10-14.5,10C1252.1,484.2,1247.1,482,1244.3,479z"
		/>
</g>
<g>
	<rect x="1472" y="886.4" class="st3" width="394" height="119.6"/>
	<g class="st4">
		<path class="st5" d="M1560.4,918.4l-4.1-18.1l-4.1,18.1H1542l-9.2-32h10.8l4.1,19.6l4.8-19.6h7.3l4.8,19.6l4.1-19.6h10.9l-9.2,32
			H1560.4z"/>
		<path class="st5" d="M1581.8,918.4v-32h9.7v32H1581.8z"/>
		<path class="st5" d="M1618.1,918.4l-11.8-16.2v16.2h-9.7v-32h10l11.1,15.2v-15.2h9.7v32H1618.1z"/>
		<path class="st5" d="M1654.1,918.4l-11.8-16.2v16.2h-9.7v-32h10l11.1,15.2v-15.2h9.7v32H1654.1z"/>
		<path class="st5" d="M1668.6,918.4v-32h24.3v8.4h-14.6v3.2h14.3v8.4h-14.3v3.5h14.6v8.4H1668.6z"/>
		<path class="st5" d="M1714.9,918.4l-4.4-10.1h-3.5v10.1h-9.7v-32h17.1c7.5,0,11.5,5,11.5,11c0,5.5-3.2,8.4-5.8,9.7l5.8,11.3
			H1714.9z M1716,897.4c0-1.7-1.5-2.5-3.2-2.5h-5.9v5h5.9C1714.5,899.9,1716,899.1,1716,897.4z"/>
		<path class="st5" d="M1740.3,902.4c0-9.8,7.6-16.6,17.5-16.6c9.9,0,17.5,6.7,17.5,16.6s-7.6,16.6-17.5,16.6
			C1747.9,919,1740.3,912.3,1740.3,902.4z M1765.5,902.4c0-4.5-3-8-7.7-8c-4.7,0-7.7,3.6-7.7,8c0,4.5,3,8,7.7,8
			C1762.5,910.5,1765.5,906.9,1765.5,902.4z"/>
		<path class="st5" d="M1778.8,918.4v-32h24.3v8.4h-14.6v3.2h14.3v8.4h-14.3v12H1778.8z"/>
	</g>
	<g class="st4">
		<path class="st5" d="M1477.5,972.4v-32h9.7V964h12.1v8.4H1477.5z"/>
		<path class="st5" d="M1500.5,956.4c0-9.8,7.6-16.6,17.5-16.6s17.5,6.7,17.5,16.6s-7.6,16.6-17.5,16.6S1500.5,966.3,1500.5,956.4z
			 M1525.7,956.4c0-4.5-3-8-7.7-8s-7.7,3.6-7.7,8c0,4.5,3,8,7.7,8S1525.7,960.9,1525.7,956.4z"/>
		<path class="st5" d="M1536.6,967.9l5-7.2c2.4,2.3,6,4.1,10.3,4.1c1.8,0,3.6-0.5,3.6-1.7c0-3.1-17.9,0-17.9-12.6
			c0-5.4,4.5-10.6,13.3-10.6c5.2,0,9.9,1.5,13.6,4.5l-5.2,6.9c-2.8-2.1-6.4-3.2-9.4-3.2c-1.9,0-2.4,0.6-2.4,1.4
			c0,3,17.8,0.4,17.8,12.3c0,7.1-5.2,11.1-13.8,11.1C1544.6,973,1540,971,1536.6,967.9z"/>
		<path class="st5" d="M1568.4,972.4v-32h24.3v8.4h-14.6v3.2h14.3v8.4h-14.3v3.5h14.6v8.4H1568.4z"/>
		<path class="st5" d="M1614.7,972.4l-4.4-10.1h-3.5v10.1h-9.7v-32h17.1c7.5,0,11.5,5,11.5,11c0,5.5-3.2,8.4-5.8,9.7l5.8,11.3
			H1614.7z M1615.8,951.4c0-1.7-1.5-2.5-3.2-2.5h-5.9v5h5.9C1614.3,953.9,1615.8,953.1,1615.8,951.4z"/>
		<path class="st5" d="M1641.8,972.4v-32h19.4c6.6,0,9.5,4.4,9.5,8.2c0,4-2.4,6.7-5.5,7.3c3.5,0.5,6.1,3.7,6.1,7.8
			c0,4.5-3,8.7-9.5,8.7H1641.8z M1660.9,950.3c0-1.1-0.9-1.8-1.9-1.8h-7.5v3.7h7.5C1660,952.2,1660.9,951.5,1660.9,950.3z
			 M1661.5,962.4c0-1.2-0.9-2.1-2.3-2.1h-7.8v4.1h7.8C1660.7,964.4,1661.5,963.6,1661.5,962.4z"/>
		<path class="st5" d="M1692.9,972.4l-4.4-10.1h-3.5v10.1h-9.7v-32h17.1c7.5,0,11.5,5,11.5,11c0,5.5-3.2,8.4-5.8,9.7l5.8,11.3
			H1692.9z M1694,951.4c0-1.7-1.5-2.5-3.2-2.5h-5.9v5h5.9C1692.5,953.9,1694,953.1,1694,951.4z"/>
		<path class="st5" d="M1729.2,972.4l-1.2-3.7h-11.5l-1.2,3.7h-11l11.8-32h12.2l11.8,32H1729.2z M1722.3,949.9l-3.2,10.3h6.3
			L1722.3,949.9z"/>
		<path class="st5" d="M1738.7,956.4c0-9.9,7.6-16.6,17.6-16.6c8.4,0,12.6,4.9,14.5,9.3l-8.4,3.9c-0.8-2.5-3.3-4.7-6.2-4.7
			c-4.7,0-7.8,3.6-7.8,8c0,4.5,3.1,8,7.8,8c2.9,0,5.4-2.2,6.2-4.7l8.4,3.8c-1.9,4.3-6.1,9.4-14.5,9.4
			C1746.3,973,1738.7,966.3,1738.7,956.4z"/>
		<path class="st5" d="M1792.6,972.4l-7.2-11.3l-1.8,2.4v8.9h-9.7v-32h9.7v12l8.4-12h11.9l-12.1,14.9l12.6,17.1H1792.6z"/>
		<path class="st5" d="M1806.1,972.4v-32h24.3v8.4h-14.6v3.2h14.3v8.4h-14.3v3.5h14.6v8.4H1806.1z"/>
		<path class="st5" d="M1841.6,972.4v-23.6h-8.6v-8.4h26.8v8.4h-8.5v23.6H1841.6z"/>
	</g>
</g>
<g id="Layer_2_1_">
</g>
</svg>
