<?xml version="1.0" encoding="utf-8"?>
<!-- Generator: Adobe Illustrator 19.0.0, SVG Export Plug-In . SVG Version: 6.00 Build 0)  -->
<svg version="1.1" id="Layer_1" xmlns="http://www.w3.org/2000/svg" xmlns:xlink="http://www.w3.org/1999/xlink" x="0px" y="0px"
	 viewBox="0 0 350 170" style="enable-background:new 0 0 350 170;" xml:space="preserve">
<style type="text/css">
	.st0{fill:#6B6C6C;}
	.st1{clip-path:url(#XMLID_98_);fill:url(#XMLID_99_);}
	.st2{clip-path:url(#XMLID_100_);fill:url(#XMLID_101_);}
	.st3{clip-path:url(#XMLID_102_);fill:url(#XMLID_103_);}
	.st4{clip-path:url(#XMLID_104_);fill:url(#XMLID_105_);}
	.st5{clip-path:url(#XMLID_106_);fill:url(#XMLID_107_);}
	.st6{clip-path:url(#XMLID_108_);fill:url(#XMLID_109_);}
	.st7{fill:#636D73;}
	.st8{fill:#8E9FA6;}
	.st9{fill:#96A2A7;}
	.st10{clip-path:url(#XMLID_110_);fill:url(#XMLID_111_);}
	.st11{clip-path:url(#XMLID_112_);fill:url(#XMLID_113_);}
	.st12{fill:#BBC3C7;}
	.st13{clip-path:url(#XMLID_114_);fill:url(#XMLID_115_);}
	.st14{fill:#4F585C;}
	.st15{clip-path:url(#XMLID_116_);fill:url(#XMLID_117_);}
	.st16{clip-path:url(#XMLID_118_);fill:url(#XMLID_119_);}
	.st17{clip-path:url(#XMLID_120_);fill:url(#XMLID_121_);}
	.st18{clip-path:url(#XMLID_122_);fill:url(#XMLID_123_);}
	.st19{clip-path:url(#XMLID_124_);fill:url(#XMLID_125_);}
	.st20{fill:#FCFEFE;}
</style>
<polygon id="XMLID_84_" class="st0" points="189.6,166.6 189.6,170.1 173.6,170.1 173.6,143.3 177.8,143.3 177.8,166.6 "/>
<path id="XMLID_81_" class="st0" d="M192.2,143.5h4.2v3.7h-4.2V143.5z M192.3,151.4h4.2v18.6h-4.2V151.4z"/>
<path id="XMLID_80_" class="st0" d="M213,151.4v3.2h-6.4v15.5h-4.2v-15.5h-2.7v-3.2h2.7v-2.2c0-5.6,3.1-7.3,7.4-7.3
	c1.5,0,3.1,0.2,4.3,0.7l-0.9,3c-0.9-0.4-1.9-0.5-2.9-0.5c-2.6,0-3.7,1.2-3.7,4.1v2.2H213z"/>
<path id="XMLID_77_" class="st0" d="M214.2,160.6c0-6.5,3-9.7,8.9-9.7c6.5,0,7.9,3.9,7.9,9.1v1.7h-12.5c0.1,4,1.6,5.6,5.3,5.6
	c2.8,0,4.5-0.9,6-1.5l0.9,2.7c-1.4,0.8-4.6,1.9-7.5,1.9C216.6,170.5,214.2,167.2,214.2,160.6 M218.6,158.9h8.1c0-3.5-1.2-5-3.6-5
	C219.9,153.8,218.7,155.6,218.6,158.9"/>
<path id="XMLID_76_" class="st0" d="M231.5,150.9c1.8-3,2.1-5.6,2.1-8.8h3.9c-0.1,4.7-1.2,7.5-3.4,10.4L231.5,150.9z"/>
<path id="XMLID_75_" class="st0" d="M248.9,159.8c2.3,0.8,4.1,2,4.1,5c0,3.8-3,5.7-8,5.7c-2.8,0-5.2-0.5-7.1-1.3l1.3-3
	c1.5,0.7,3.5,1.3,5.8,1.3c2.2,0,3.9-0.4,3.9-2.2c0-1.1-0.8-1.8-2.4-2.3c-1.4-0.5-3.1-1-4.4-1.5c-2.3-0.8-4-2.1-4-4.9
	c0-4,3.5-5.6,7.8-5.6c3,0,5.1,0.6,6.8,1.2l-1.3,3c-1.5-0.8-3.4-1.2-5.6-1.2c-2.6,0-3.8,0.8-3.8,2.1c0,1,0.7,1.6,2.3,2.2
	C245.5,158.7,247.5,159.3,248.9,159.8"/>
<path id="XMLID_74_" class="st0" d="M288.1,168.7c-2.4,1.1-5.8,1.8-9.6,1.8c-8.6,0-12.5-4.9-12.5-13.8c0-9.4,4.9-13.8,12.9-13.8
	c3.8,0,7.1,1.2,9.2,3.7l-2.6,2.3c-1.5-1.6-3.6-2.7-6.6-2.7c-5.8,0-8.6,3.9-8.6,10.9c0,6.5,2.8,10,8.3,10c2,0,3.7-0.3,5.2-0.7v-7.2
	h-6.2v-3.3h10.3V168.7z"/>
<polygon id="XMLID_73_" class="st0" points="189.6,166.6 189.6,170.1 173.6,170.1 173.6,143.3 177.8,143.3 177.8,166.6 "/>
<path id="XMLID_70_" class="st0" d="M291.3,160.7c0-6.5,3-9.7,9.5-9.7c6.6,0,8.6,3.7,8.6,9.9c0,6.5-3,9.7-9.5,9.7
	C293.2,170.5,291.3,166.8,291.3,160.7 M305.1,160.5c0-3.6-0.8-6.6-4.4-6.6c-4,0-5.2,2.5-5.2,7.1c0,3.7,0.8,6.6,4.3,6.6
	C303.9,167.5,305.1,165.1,305.1,160.5"/>
<path id="XMLID_67_" class="st0" d="M312,160.7c0-6.5,3-9.7,9.5-9.7c6.6,0,8.6,3.7,8.6,9.9c0,6.5-3,9.7-9.5,9.7
	C314,170.5,312,166.8,312,160.7 M325.8,160.5c0-3.6-0.8-6.6-4.4-6.6c-4,0-5.2,2.5-5.2,7.1c0,3.7,0.8,6.6,4.3,6.6
	C324.6,167.5,325.8,165.1,325.8,160.5"/>
<path id="XMLID_64_" class="st0" d="M332.8,161.2c0-6,2.5-10.2,8.9-10.2c1.4,0,2.6,0.2,3.7,0.8v-9.4l4.2-0.5v23.3l0.3,4.9h-3.6
	l-0.4-1.2c-1.6,1.2-3.4,1.7-5.5,1.7C335.2,170.5,332.8,167,332.8,161.2 M345.5,166.1v-11.2c-1.1-0.6-2.1-0.8-3.1-0.8
	c-3.2,0-5.3,1.8-5.3,6.9c0,3.9,1.3,6.5,4.8,6.5C343.3,167.5,344.4,167,345.5,166.1"/>
<g id="XMLID_61_">
	<defs>
		<path id="XMLID_62_" d="M0,70.9c0,39.2,31.8,70.9,70.9,70.9c39,0,70.7-31.4,71-70.4v-1.1C141.6,31.4,109.9,0,70.9,0
			C31.8,0,0,31.7,0,70.9"/>
	</defs>
	<clipPath id="XMLID_98_">
		<use xlink:href="#XMLID_62_"  style="overflow:visible;"/>
	</clipPath>
	
		<radialGradient id="XMLID_99_" cx="-309.5746" cy="477.841" r="1.5204" gradientTransform="matrix(48.6217 0 0 48.6217 15120.291 -23164.5469)" gradientUnits="userSpaceOnUse">
		<stop  offset="0" style="stop-color:#C20636"/>
		<stop  offset="0.5" style="stop-color:#C20636"/>
		<stop  offset="0.7363" style="stop-color:#C10735"/>
		<stop  offset="0.8358" style="stop-color:#BC0833"/>
		<stop  offset="0.9094" style="stop-color:#B3082E"/>
		<stop  offset="0.9701" style="stop-color:#A60328"/>
		<stop  offset="1" style="stop-color:#9E0424"/>
	</radialGradient>
	<rect id="XMLID_63_" x="0" y="0" class="st1" width="141.9" height="141.8"/>
</g>
<g id="XMLID_58_">
	<defs>
		<path id="XMLID_59_" d="M22.9,22.9c-23.7,23.7-26.1,59.8-5.3,80.6c20.8,20.8,56.9,18.4,80.6-5.3c23.7-23.8,26.1-59.9,5.3-80.7
			C94.1,8.1,81.4,3.4,68.1,3.4C52.4,3.4,35.8,10,22.9,22.9"/>
	</defs>
	<clipPath id="XMLID_100_">
		<use xlink:href="#XMLID_59_"  style="overflow:visible;"/>
	</clipPath>
	
		<linearGradient id="XMLID_101_" gradientUnits="userSpaceOnUse" x1="-307.9012" y1="476.814" x2="-306.3809" y2="476.814" gradientTransform="matrix(75.1663 0 0 75.1663 23147.2129 -35776.4805)">
		<stop  offset="0" style="stop-color:#F56E0D"/>
		<stop  offset="0.193" style="stop-color:#E35020"/>
		<stop  offset="0.446" style="stop-color:#D12D2D"/>
		<stop  offset="0.6578" style="stop-color:#C60E31"/>
		<stop  offset="0.8011" style="stop-color:#C20732"/>
		<stop  offset="1" style="stop-color:#C20732"/>
	</linearGradient>
	<rect id="XMLID_60_" x="-3.2" y="3.4" class="st2" width="127.6" height="121"/>
</g>
<g id="XMLID_55_">
	<defs>
		<path id="XMLID_56_" d="M22.9,22.9c-23.7,23.7-26.1,59.8-5.3,80.6c20.8,20.8,56.9,18.4,80.6-5.3c23.7-23.8,26.1-59.9,5.3-80.7
			C94.1,8.1,81.4,3.4,68.1,3.4C52.4,3.4,35.8,10,22.9,22.9"/>
	</defs>
	<clipPath id="XMLID_102_">
		<use xlink:href="#XMLID_56_"  style="overflow:visible;"/>
	</clipPath>
	
		<linearGradient id="XMLID_103_" gradientUnits="userSpaceOnUse" x1="-303.7943" y1="470.7783" x2="-302.274" y2="470.7783" gradientTransform="matrix(24.6139 67.6262 67.6262 -24.6139 -24318.5762 32141.6895)">
		<stop  offset="0" style="stop-color:#F58598"/>
		<stop  offset="1.118763e-002" style="stop-color:#F38295"/>
		<stop  offset="0.263" style="stop-color:#DE5062"/>
		<stop  offset="0.4875" style="stop-color:#CF2B45"/>
		<stop  offset="0.6745" style="stop-color:#C60D37"/>
		<stop  offset="0.8011" style="stop-color:#C20732"/>
		<stop  offset="1" style="stop-color:#C20732"/>
	</linearGradient>
	<polygon id="XMLID_57_" class="st3" points="109.4,-37.6 163.2,110.2 11.7,165.4 -42.1,17.6 	"/>
</g>
<g id="XMLID_52_">
	<defs>
		<path id="XMLID_53_" d="M69.3,40.9H69V41l-0.4,0.1l0.4,0.7l0,59.9l-1.8,1l1.4,1c0.1,0.1,0.5,0.3,1,0.3h19.7c0.2,0,0.4-0.2,0.4-0.5
			V98c0-0.4-0.1-0.5-0.2-0.7l-1-1.6H75.6l0.1-54.6c0-0.3-0.1-0.5-0.1-0.5l-1-1.6L69.3,40.9z"/>
	</defs>
	<clipPath id="XMLID_104_">
		<use xlink:href="#XMLID_53_"  style="overflow:visible;"/>
	</clipPath>
	
		<linearGradient id="XMLID_105_" gradientUnits="userSpaceOnUse" x1="-306.5828" y1="467.622" x2="-305.0624" y2="467.622" gradientTransform="matrix(27.5497 27.5497 27.5497 -27.5497 -4378.2476 21380.4395)">
		<stop  offset="0" style="stop-color:#CE3654"/>
		<stop  offset="7.644773e-002" style="stop-color:#C22C4A"/>
		<stop  offset="0.2424" style="stop-color:#AE1B3C"/>
		<stop  offset="0.4288" style="stop-color:#A01032"/>
		<stop  offset="0.6508" style="stop-color:#980A2D"/>
		<stop  offset="1" style="stop-color:#960A2B"/>
	</linearGradient>
	<polygon id="XMLID_54_" class="st4" points="78.5,27.8 122.2,71.5 78.5,115.2 34.8,71.5 	"/>
</g>
<g id="XMLID_49_">
	<defs>
		<path id="XMLID_50_" d="M71.5,11.2l-1.5,0.5c-33.3,0-58.3,27.8-58.3,61c0,16,6.3,31.1,17.7,42.5c11.4,11.4,26.5,17.1,42.7,17.1
			c16.2,0,31.4-6.1,42.8-17.5c11.4-11.4,17.7-26.5,17.7-42.5v-3.5l-1.4-1.2l-43.9,0v7l1.1,1.5c0,0,0.1,0.1,0.4,0.1h33.4h3.2h0h0
			c-1.9,27.8-25.3,49.5-53.3,49.5c-14.3,0-27.7-5.5-37.8-15.6c-10.1-10-15.6-23.3-15.6-37.5c0-14.2,5.3-27.8,15.3-37.8
			c10.1-10,22.9-15.3,38.1-15.6l2.9,0l0.3,0c0.2,0,0.4,0,0.4-0.5v-5.8c0-0.4-0.1-0.6-0.1-0.6l-1.3-1.6L71.5,11.2z"/>
	</defs>
	<clipPath id="XMLID_106_">
		<use xlink:href="#XMLID_50_"  style="overflow:visible;"/>
	</clipPath>
	
		<linearGradient id="XMLID_107_" gradientUnits="userSpaceOnUse" x1="-305.416" y1="471.3802" x2="-303.8957" y2="471.3802" gradientTransform="matrix(56.4581 56.4581 56.4581 -56.4581 -9340.5381 43885.2539)">
		<stop  offset="0" style="stop-color:#CE3654"/>
		<stop  offset="7.644773e-002" style="stop-color:#C22C4A"/>
		<stop  offset="0.2424" style="stop-color:#AE1B3C"/>
		<stop  offset="0.4288" style="stop-color:#A01032"/>
		<stop  offset="0.6508" style="stop-color:#980A2D"/>
		<stop  offset="1" style="stop-color:#960A2B"/>
	</linearGradient>
	<polygon id="XMLID_51_" class="st5" points="72.2,-49.6 193.4,71.6 72.2,192.8 -49,71.6 	"/>
</g>
<g id="XMLID_46_">
	<defs>
		<path id="XMLID_47_" d="M39.6,49.4c0,5.2,4.3,9.5,9.5,9.5c5.3,0,9.5-4.2,9.5-9.5c0-5.2-4.3-9.5-9.5-9.5
			C43.9,39.9,39.6,44.1,39.6,49.4"/>
	</defs>
	<clipPath id="XMLID_108_">
		<use xlink:href="#XMLID_47_"  style="overflow:visible;"/>
	</clipPath>
	
		<linearGradient id="XMLID_109_" gradientUnits="userSpaceOnUse" x1="-312.529" y1="451.8556" x2="-311.0086" y2="451.8556" gradientTransform="matrix(8.8365 8.8365 8.8365 -8.8365 -1188.7212 6797.1182)">
		<stop  offset="0" style="stop-color:#CE3654"/>
		<stop  offset="7.644773e-002" style="stop-color:#C22C4A"/>
		<stop  offset="0.2424" style="stop-color:#AE1B3C"/>
		<stop  offset="0.4288" style="stop-color:#A01032"/>
		<stop  offset="0.6508" style="stop-color:#980A2D"/>
		<stop  offset="1" style="stop-color:#960A2B"/>
	</linearGradient>
	<polygon id="XMLID_48_" class="st6" points="49.2,30.3 68.2,49.4 49.2,68.4 30.2,49.4 	"/>
</g>
<polygon id="XMLID_45_" class="st7" points="68.7,101.3 67.2,102.7 88.5,102.7 87.1,101.3 "/>
<polygon id="XMLID_44_" class="st8" points="74.6,95.7 72.9,97.1 87.1,97.1 88.5,95.7 "/>
<polygon id="XMLID_43_" class="st9" points="67.2,39.1 68.6,40.4 73,40.4 74.6,39.1 "/>
<g id="XMLID_40_">
	<defs>
		<polygon id="XMLID_41_" points="73,40.4 73.1,97 74.6,95.7 74.6,39.1 		"/>
	</defs>
	<clipPath id="XMLID_110_">
		<use xlink:href="#XMLID_41_"  style="overflow:visible;"/>
	</clipPath>
	
		<linearGradient id="XMLID_111_" gradientUnits="userSpaceOnUse" x1="-564.0994" y1="341.9324" x2="-562.5787" y2="341.9324" gradientTransform="matrix(1.0358 0 0 -1.0358 657.3253 422.1812)">
		<stop  offset="0" style="stop-color:#BBC3C7"/>
		<stop  offset="0.1753" style="stop-color:#9FA8AC"/>
		<stop  offset="0.569" style="stop-color:#656D71"/>
		<stop  offset="0.8543" style="stop-color:#41484A"/>
		<stop  offset="1" style="stop-color:#33393B"/>
	</linearGradient>
	<rect id="XMLID_42_" x="73" y="39.1" class="st10" width="1.6" height="57.9"/>
</g>
<g id="XMLID_37_">
	<defs>
		<polygon id="XMLID_38_" points="87.1,97.1 87.1,101.3 88.5,102.7 88.5,95.7 		"/>
	</defs>
	<clipPath id="XMLID_112_">
		<use xlink:href="#XMLID_38_"  style="overflow:visible;"/>
	</clipPath>
	
		<linearGradient id="XMLID_113_" gradientUnits="userSpaceOnUse" x1="-594.9448" y1="311.6907" x2="-593.4251" y2="311.6907" gradientTransform="matrix(0.9094 0 0 -0.9094 628.1766 382.6565)">
		<stop  offset="0" style="stop-color:#BBC3C7"/>
		<stop  offset="0.1753" style="stop-color:#9FA8AC"/>
		<stop  offset="0.569" style="stop-color:#656D71"/>
		<stop  offset="0.8543" style="stop-color:#41484A"/>
		<stop  offset="1" style="stop-color:#33393B"/>
	</linearGradient>
	<rect id="XMLID_39_" x="87.1" y="95.7" class="st11" width="1.4" height="7"/>
</g>
<polygon id="XMLID_36_" class="st12" points="67.2,102.7 68.7,101.3 68.6,40.4 67.2,39.1 "/>
<g id="XMLID_31_">
	<defs>
		<path id="XMLID_32_" d="M40.4,48.3c0-4.3,3.5-7.9,7.9-7.9c4.3,0,7.9,3.5,7.9,7.9c0,4.3-3.5,7.8-7.9,7.8
			C43.9,56.1,40.4,52.6,40.4,48.3 M39,48.3c0,5.1,4.2,9.2,9.3,9.2c5.1,0,9.3-4.1,9.3-9.2c0-5.1-4.1-9.3-9.3-9.3
			C43.2,39,39,43.2,39,48.3"/>
	</defs>
	<clipPath id="XMLID_114_">
		<use xlink:href="#XMLID_32_"  style="overflow:visible;"/>
	</clipPath>
	
		<linearGradient id="XMLID_115_" gradientUnits="userSpaceOnUse" x1="-312.792" y1="498.7644" x2="-311.2717" y2="498.7644" gradientTransform="matrix(8.6045 8.6045 -8.6045 8.6045 7024.709 -1558.4851)">
		<stop  offset="0" style="stop-color:#B2C0C7"/>
		<stop  offset="1" style="stop-color:#282D2D"/>
	</linearGradient>
	<polygon id="XMLID_35_" class="st13" points="29.8,48.3 48.3,66.8 66.8,48.3 48.3,29.8 	"/>
</g>
<polygon id="XMLID_30_" class="st14" points="87.1,74.5 123.8,74.5 124.6,73.7 125.2,73.1 88.5,73 "/>
<polygon id="XMLID_29_" class="st9" points="87.1,67.4 88.5,68.9 129.6,68.8 131,67.4 "/>
<g id="XMLID_26_">
	<defs>
		<path id="XMLID_27_" d="M10.8,70.9c0,16,6.3,31.1,17.6,42.5C39.7,124.8,54.8,131,70.9,131c16.1,0,31.2-6.3,42.5-17.6
			C124.8,102,131,86.9,131,70.9v-3.5l-1.4,1.4v2.1c0,15.7-6.1,30.4-17.2,41.5c-11.1,11.1-25.8,17.2-41.6,17.2
			c-15.7,0-30.4-6.1-41.5-17.2c-11.1-11.1-17.2-25.9-17.2-41.5c0-32.4,26.3-58.7,58.7-58.7l2.2,0l1.4-1.3l-3.6,0
			C37.8,10.8,10.8,37.7,10.8,70.9"/>
	</defs>
	<clipPath id="XMLID_116_">
		<use xlink:href="#XMLID_27_"  style="overflow:visible;"/>
	</clipPath>
	
		<linearGradient id="XMLID_117_" gradientUnits="userSpaceOnUse" x1="-305.4234" y1="478.6276" x2="-303.903" y2="478.6276" gradientTransform="matrix(56.3676 56.3676 -56.3676 56.3676 44223.418 -9734.7988)">
		<stop  offset="0" style="stop-color:#BBC3C7"/>
		<stop  offset="1" style="stop-color:#3E4447"/>
	</linearGradient>
	<polygon id="XMLID_28_" class="st15" points="-49.3,70.9 70.9,191.1 191.1,70.9 70.9,-49.3 	"/>
</g>
<g id="XMLID_23_">
	<defs>
		<path id="XMLID_24_" d="M70.1,16.5c-14.2,0.2-27.6,5.9-37.7,15.9c-10.3,10.3-15.9,24-15.9,38.5c0,14.6,5.7,28.2,15.9,38.5
			c10.2,10.1,23.5,15.8,37.8,16h1.4c28.2-0.4,51.7-22.5,53.6-50.8l0.1-1.5l-0.7,0.6l-0.7,0.8c-1.9,27.8-25.1,49.5-52.9,49.5
			c-14.2,0-27.5-5.5-37.5-15.6c-10-10-15.5-23.3-15.5-37.5c0-14.2,5.5-27.5,15.5-37.5c10.1-10,23.4-15.5,37.5-15.5l3.6,0l-1.4-1.4
			l-1.6,0H70.1z"/>
	</defs>
	<clipPath id="XMLID_118_">
		<use xlink:href="#XMLID_24_"  style="overflow:visible;"/>
	</clipPath>
	
		<linearGradient id="XMLID_119_" gradientUnits="userSpaceOnUse" x1="-300.4849" y1="473.0599" x2="-298.9646" y2="473.0599" gradientTransform="matrix(-71.5526 0 0 -71.5526 -21375.2227 33919.582)">
		<stop  offset="0" style="stop-color:#BBC3C7"/>
		<stop  offset="1" style="stop-color:#474F53"/>
	</linearGradient>
	<rect id="XMLID_25_" x="16.5" y="16.5" class="st16" width="108.8" height="108.9"/>
</g>
<polygon id="XMLID_22_" class="st12" points="87.1,74.5 88.5,73 88.5,68.9 87.1,67.4 "/>
<g id="XMLID_19_">
	<defs>
		<polygon id="XMLID_20_" points="73.1,12.1 73.1,16.5 74.5,17.9 74.5,10.8 		"/>
	</defs>
	<clipPath id="XMLID_120_">
		<use xlink:href="#XMLID_20_"  style="overflow:visible;"/>
	</clipPath>
	
		<linearGradient id="XMLID_121_" gradientUnits="userSpaceOnUse" x1="-602.2659" y1="342.7246" x2="-600.7458" y2="342.7246" gradientTransform="matrix(0.9032 0 0 -0.9032 617.0538 323.8945)">
		<stop  offset="0" style="stop-color:#BBC3C7"/>
		<stop  offset="0.1753" style="stop-color:#9FA8AC"/>
		<stop  offset="0.569" style="stop-color:#656D71"/>
		<stop  offset="0.8543" style="stop-color:#41484A"/>
		<stop  offset="1" style="stop-color:#33393B"/>
	</linearGradient>
	<rect id="XMLID_21_" x="73.1" y="10.8" class="st17" width="1.4" height="7.1"/>
</g>
<g id="XMLID_14_">
	<defs>
		<path id="XMLID_15_" d="M68,39.8V102h19.8v-5.5H73.7V39.8H68z M70.1,11.5c-32.3,0.4-58.6,26.9-58.6,59.4c0,15.9,6.2,30.8,17.4,42
			c11.2,11.2,26.1,17.4,41.9,17.4c15.9,0,30.8-6.2,42-17.4c11.2-11.2,17.4-26.1,17.4-42v-2.7l-2.3,0h-40v5.5h36.7c0,0.1,0,0.7,0,0.8
			c-1.9,28-25.2,50.2-53.7,50.2c-14.4,0-27.9-5.6-38.1-15.8C22.7,98.8,17.1,85.3,17.1,70.9c0-14.4,5.6-27.9,15.7-38.1
			C43,22.7,56.5,17.1,70.9,17.1c0.6,0,2.2,0,2.8,0v-5.6c-0.6,0-1.5,0-2.2,0H70.1z"/>
	</defs>
	<clipPath id="XMLID_122_">
		<use xlink:href="#XMLID_15_"  style="overflow:visible;"/>
	</clipPath>
	
		<radialGradient id="XMLID_123_" cx="-308.6628" cy="472.8188" r="1.5204" gradientTransform="matrix(59.6923 0 0 -59.6923 18471.7676 28269.3516)" gradientUnits="userSpaceOnUse">
		<stop  offset="0" style="stop-color:#FCFEFE"/>
		<stop  offset="0.35" style="stop-color:#FCFEFE"/>
		<stop  offset="0.5295" style="stop-color:#F8FBFB"/>
		<stop  offset="0.7147" style="stop-color:#EAF0F2"/>
		<stop  offset="0.902" style="stop-color:#D5DEE2"/>
		<stop  offset="1" style="stop-color:#C7D2D7"/>
	</radialGradient>
	<rect id="XMLID_18_" x="11.5" y="11.5" class="st18" width="118.7" height="118.7"/>
</g>
<g id="XMLID_11_">
	<defs>
		<path id="XMLID_12_" d="M39.7,48.3c0,4.7,3.8,8.5,8.5,8.5c4.7,0,8.5-3.8,8.5-8.5c0-4.7-3.8-8.5-8.5-8.5
			C43.5,39.8,39.7,43.6,39.7,48.3"/>
	</defs>
	<clipPath id="XMLID_124_">
		<use xlink:href="#XMLID_12_"  style="overflow:visible;"/>
	</clipPath>
	
		<radialGradient id="XMLID_125_" cx="-336.0194" cy="460.0859" r="1.5204" gradientTransform="matrix(8.7168 0 0 -8.7168 2973.7207 4055.6096)" gradientUnits="userSpaceOnUse">
		<stop  offset="0" style="stop-color:#FCFEFE"/>
		<stop  offset="0.35" style="stop-color:#FCFEFE"/>
		<stop  offset="0.5653" style="stop-color:#F8FBFB"/>
		<stop  offset="0.7879" style="stop-color:#EAF0F2"/>
		<stop  offset="1" style="stop-color:#D6DFE3"/>
	</radialGradient>
	<rect id="XMLID_13_" x="39.7" y="39.8" class="st19" width="17" height="17"/>
</g>
<g id="XMLID_2_">
	<path id="XMLID_10_" class="st20" d="M49.8,41.3c2,0,3.7,0.7,5.2,1.8c-1.5-2-4-3.3-6.7-3.3c-4.7,0-8.5,3.8-8.5,8.5
		c0,2.7,1.3,5.1,3.3,6.7c-1.1-1.4-1.8-3.2-1.8-5.1C41.2,45.1,45.1,41.3,49.8,41.3"/>
	<path id="XMLID_9_" class="st20" d="M73.7,11.6c-0.7,0-2.2,0-2.9,0c-32.7,0-59.3,26.6-59.3,59.4c0,15.9,6.2,30.8,17.4,42
		c0.4,0.4,0.7,0.7,1.1,1C19.4,102.8,13.6,88.4,13.6,73C13.6,40.3,36.7,13.2,73.7,11.6"/>
	<path id="XMLID_8_" class="st20" d="M73.7,96.4c0,0,4.1,1.2,14.1,1.2v-1.2H73.7z"/>
	<path id="XMLID_7_" class="st20" d="M73.7,41.6v-1.8H68V102c0,0,1.8-9.5,1.8-60.4H73.7z"/>
	<path id="XMLID_6_" class="st20" d="M130.2,68.2l-42.4,0v5.5h1.5v-4C126.3,69.7,130.2,68.2,130.2,68.2"/>
	<path id="XMLID_5_" class="st20" d="M124.6,73.7c0,0.1,0,0.7,0,0.8c-1.9,28-25.2,50.2-53.7,50.2c-14.3,0-27.9-5.6-38.1-15.8
		c-6.6-6.6-11.3-14.7-13.8-23.5c6.4,23.2,27.6,40,52.7,40c27,0,51.9-21.2,53.5-51.7H124.6z"/>
	<polygon id="XMLID_4_" class="st0" points="194.7,24.7 173.6,24.7 173.6,116.4 238.6,116.4 238.6,98.5 194.7,98.5 	"/>
	<path id="XMLID_3_" class="st0" d="M285.2,81.4h17.3v16c-3.2,1.2-9.4,2.4-15.3,2.4c-19.1,0-25.4-9.7-25.4-29.4
		c0-18.8,6.1-29.8,25.1-29.8c10.6,0,16.6,3.3,21.6,9.7l13.2-12.1c-8-11.5-22.1-15-35.3-15c-29.7,0-45.2,16.2-45.2,47.1
		c0,30.7,14.1,47.4,45.1,47.4c14.2,0,28.1-3.6,35.7-8.9V64.3h-36.8V81.4z"/>
</g>
</svg>
