<?xml version="1.0" encoding="utf-8"?>
<!-- Generator: Adobe Illustrator 19.1.0, SVG Export Plug-In . SVG Version: 6.00 Build 0)  -->
<!DOCTYPE svg PUBLIC "-//W3C//DTD SVG 1.1//EN" "http://www.w3.org/Graphics/SVG/1.1/DTD/svg11.dtd">
<svg version="1.1" id="Layer_1" xmlns="http://www.w3.org/2000/svg" xmlns:xlink="http://www.w3.org/1999/xlink" x="0px" y="0px"
	 viewBox="0 0 726.9 283.5" style="enable-background:new 0 0 726.9 283.5;" xml:space="preserve">
<style type="text/css">
	.st0{fill:#990AE3;}
	.st1{fill:#FFFFFF;}
	.st2{filter:url(#Adobe_OpacityMaskFilter);}
	.st3{opacity:0.2;mask:url(#SVGID_1_);}
	.st4{fill:#642D96;}
</style>
<g>
	<g>
		<g>
			<g>
				<g>
					<g>
						<g>
							<path class="st0" d="M331,105.8c-3.7,0-7.3-2.8-11-8.2c-2.4-3.8-3.6-6.7-3.6-8.7c0-3.4,2.2-6.5,6.7-9.4
								c4.4-2.9,9.3-4.3,14.5-4.3h86.5c5.5,0,8.2,2.5,8.2,7.6c0,5.8-1.6,11.1-4.7,15.9c-3.1,4.8-6.5,7.2-10.1,7.2h-28.1v95.6
								c0,5.8-1.6,11.1-4.7,15.9c-3.1,4.8-6.5,7.2-10.2,7.2c-3.7,0-7.3-2.7-11-8.3c-2.4-3.8-3.6-6.7-3.6-8.7V105.8H331z"/>
							<path class="st0" d="M439.1,180.2c1.6,6.6,4.9,12,10.2,16c5.2,4,11.5,6,18.8,6c6.2,0,13.6-2.1,22.2-6.3c4-2,7.6-3,11-3
								c4.5,0,6.8,2,6.8,6.1c0,3.7-0.8,7.2-2.4,10.6c-1.6,3.4-3.7,5.9-6.2,7.4c-4.8,3-10.1,5.3-16,6.9c-5.9,1.6-11.7,2.4-17.4,2.4
								c-10.2,0-19.4-2.7-27.8-8c-8.4-5.4-14.9-12.3-19.6-20.7c-4.6-8.5-7-17.5-7-27.1c0-10.7,2.5-20.4,7.6-29.1
								c5.1-8.7,11.7-15.4,19.9-20.1c8.2-4.7,17.1-7.1,26.9-7.1c9.4,0,17.9,2.2,25.5,6.7c7.5,4.4,13.4,10.3,17.5,17.7
								c4.1,7.3,6.1,15.4,6.1,24.1c0,4.5-1.2,8.6-3.5,12.2c-2.3,3.6-4.9,5.4-7.7,5.4H439.1z M465.3,137.5c-6.8,0-12.6,1.9-17.3,5.8
								c-4.8,3.9-7.8,9.1-8.9,15.5H489c-0.3-6.1-2.7-11.1-7.2-15.2C477.3,139.5,471.8,137.5,465.3,137.5z"/>
							<path class="st0" d="M554.1,224.4c-6.3,0-11.8-2.5-16.5-7.5c-4.7-5-7-10.9-7-17.7V86.9c0-3.1,2.1-6.1,6.5-8.9
								c4.3-2.8,8.9-4.2,13.8-4.2c5.2,0,7.8,2.4,7.8,7.2v109.1c0,1.8,0.4,3.4,1.2,4.6c0.8,1.2,2.1,2.2,4.1,3.1c2.3,1,3.4,3,3.4,5.9
								c0,5.2-1.4,10-4.2,14.3C560.4,222.3,557.4,224.4,554.1,224.4z"/>
							<path class="st0" d="M596.9,102.6c-3.7,0-7.5-2.9-11.4-8.7c-2.7-4.1-4-7.3-4-9.5c0-3.5,2.4-6.8,7.2-9.9
								c4.8-3.1,9.9-4.7,15.4-4.7c5.9,0,8.9,2.7,8.9,8c0,4.2-0.8,8.3-2.4,12.2c-1.6,3.9-3.7,7-6.1,9.2
								C601.9,101.5,599.4,102.6,596.9,102.6z M596.9,224.4c-3.2,0-6.8-2.7-10.6-8c-2.3-3.7-3.4-6.4-3.4-8.2v-78.9
								c0-3.1,2.1-6.1,6.4-8.9c4.3-2.8,8.9-4.2,13.9-4.2c5.2,0,7.8,2.4,7.8,7.2v78.9c0,3.8-0.7,7.5-2.2,11c-1.5,3.5-3.3,6.3-5.5,8.2
								C601.1,223.4,599,224.4,596.9,224.4z"/>
							<path class="st0" d="M679.1,224.4c-10.2,0-19.4-2.5-27.6-7.6c-8.3-5.1-14.7-11.7-19.2-20c-4.6-8.2-6.9-17.2-6.9-27
								c0-10.4,2.6-20,7.8-28.6c5.2-8.6,12-15.3,20.3-20c8.3-4.7,17.3-7.1,26.9-7.1c8.2,0,16.1,2.3,23.9,6.8
								c4.9-3.2,9.9-4.9,14.8-4.9c5.2,0,7.8,2.4,7.8,7.2v78.9c0,3.8-0.7,7.5-2.2,11c-1.5,3.5-3.3,6.3-5.5,8.2c-2.2,2-4.3,3-6.5,3
								c-3.2,0-6.8-2.7-10.6-8c-1.4-2.3-2.4-4.2-3-5.9c-1.1,3.1-2.6,5.8-4.6,8c-1.9,2.3-3.9,3.7-6,4.4
								C685.7,223.9,682.5,224.4,679.1,224.4z M681,198.2c6.3,0,12.3-1.8,17.8-5.3v-48c-5.2-3-11.1-4.4-17.6-4.4
								c-8,0-14.8,2.7-20.2,8.1c-5.4,5.4-8.1,12.2-8.1,20.4c0,8.2,2.7,15.1,8.1,20.7C666.5,195.4,673.1,198.2,681,198.2z"/>
						</g>
					</g>
				</g>
			</g>
		</g>
	</g>
	<g>
		<g>
			<g>
				<g>
					<path class="st0" d="M186.8,210.9c36.8-21.3,63-48.1,75.2-76.6c5-20.5,7.8-42.6,7.8-65.9c0-3.3-0.2-6.4-0.4-9.4
						c-2.1,34.5-46.7,77.8-105.6,106.1c-71.1,34.2-124.4,43.4-148.2,17.3c8.3,16.3,19.3,32.8,31.9,47.6
						C76.6,256.1,124.9,246.8,186.8,210.9z"/>
				</g>
				<g>
					<path class="st0" d="M155.4,140.8C222.5,108.4,269.2,62.4,261,31.9C247.7,8.8,220.6,0,191.6,0C105.6,0,0,56.7,0,129
						c0,9.3,2,19.7,5.7,30.6C25.3,185.6,85.3,174.6,155.4,140.8z"/>
				</g>
				<g>
					<path class="st0" d="M149.7,243.3L149.7,243.3c-47.2,19.1-74.2,13-89.1,1.1l-0.2-0.2c23.1,23,49.4,39.2,72.5,39.2
						c40.4,0,95.8-49,122-125.1C240.1,185.8,208.5,219.6,149.7,243.3z"/>
				</g>
				<path class="st1" d="M149.7,243.3L149.7,243.3c58.7-23.7,90.4-57.5,105.2-84.9c2.7-7.7,5-15.8,7.1-24.1
					c-12.1,28.5-38.4,55.3-75.2,76.6c-61.9,35.9-110.1,45.2-139.4,19.2c4.2,4.9,8.6,9.7,13.1,14.2l0.2,0.2
					C75.6,256.3,102.6,262.4,149.7,243.3z"/>
				<path class="st1" d="M163.7,165.2c58.9-28.3,103.5-71.7,105.6-106.1c-1.1-10.7-4-19.7-8.3-27.2c8.1,30.5-38.6,76.5-105.6,108.9
					C85.3,174.6,25.3,185.6,5.7,159.6c2.5,7.5,5.8,15.2,9.7,22.9C39.2,208.6,92.6,199.4,163.7,165.2z"/>
			</g>
		</g>
		<defs>
			<filter id="Adobe_OpacityMaskFilter" filterUnits="userSpaceOnUse" x="0" y="0" width="269.8" height="283.5">
				
					<feColorMatrix  type="matrix" values="-1 0 0 0 1  0 -1 0 0 1  0 0 -1 0 1  0 0 0 1 0" color-interpolation-filters="sRGB" result="source"/>
			</filter>
		</defs>
		<mask maskUnits="userSpaceOnUse" x="0" y="0" width="269.8" height="283.5" id="SVGID_1_">
			<g class="st2">
				
					<image style="overflow:visible;" width="1141" height="1198" xlink:href="1E98BDEC0710E688.jpg"  transform="matrix(0.24 0 0 0.24 -2 -2)">
				</image>
			</g>
		</mask>
		<g class="st3">
			<g>
				<g>
					<path class="st4" d="M186.8,210.9c36.8-21.3,63-48.1,75.2-76.6c5-20.5,7.8-42.6,7.8-65.9c0-3.3-0.2-6.4-0.4-9.4
						c-2.1,34.5-46.7,77.8-105.6,106.1c-71.1,34.2-124.4,43.4-148.2,17.3c8.3,16.3,19.3,32.8,31.9,47.6
						C76.6,256.1,124.9,246.8,186.8,210.9z"/>
				</g>
				<g>
					<path class="st4" d="M155.4,140.8C222.5,108.4,269.2,62.4,261,31.9C247.7,8.8,220.6,0,191.6,0C105.6,0,0,56.7,0,129
						c0,9.3,2,19.7,5.7,30.6C25.3,185.6,85.3,174.6,155.4,140.8z"/>
				</g>
				<g>
					<path class="st4" d="M149.7,243.3L149.7,243.3c-47.2,19.1-74.2,13-89.1,1.1l-0.2-0.2c23.1,23,49.4,39.2,72.5,39.2
						c40.4,0,95.8-49,122-125.1C240.1,185.8,208.5,219.6,149.7,243.3z"/>
				</g>
				<path class="st4" d="M149.7,243.3L149.7,243.3c58.7-23.7,90.4-57.5,105.2-84.9c2.7-7.7,5-15.8,7.1-24.1
					c-12.1,28.5-38.4,55.3-75.2,76.6c-61.9,35.9-110.1,45.2-139.4,19.2c4.2,4.9,8.6,9.7,13.1,14.2l0.2,0.2
					C75.6,256.3,102.6,262.4,149.7,243.3z"/>
				<path class="st4" d="M163.7,165.2c58.9-28.3,103.5-71.7,105.6-106.1c-1.1-10.7-4-19.7-8.3-27.2c8.1,30.5-38.6,76.5-105.6,108.9
					C85.3,174.6,25.3,185.6,5.7,159.6c2.5,7.5,5.8,15.2,9.7,22.9C39.2,208.6,92.6,199.4,163.7,165.2z"/>
			</g>
		</g>
	</g>
</g>
</svg>
