<?xml version="1.0" encoding="UTF-8" standalone="no"?>
<!DOCTYPE svg PUBLIC "-//W3C//DTD SVG 1.1//EN"
"http://www.w3.org/Graphics/SVG/1.1/DTD/svg11.dtd">


<!-- Page 1 -->
<svg x="0" y="0" width="632" height="200" viewBox="0 0 632 200" version="1.1" xmlns="http://www.w3.org/2000/svg" xmlns:xlink="http://www.w3.org/1999/xlink"
style="display: block;margin-left: auto;margin-right: auto;">
<defs>

<style type="text/css"><![CDATA[

.g0_1{
fill: #EE1D23;
}

]]></style>

</defs>
<path d="M595.2,89.4c-.6,-.5,-1,-.4,-1.9,-.4h-9.7l6.3,-18.2c.3,-.6,.5,-1.2,1,-2.7c.8,-2.2,1.2,-4.1,1.1,-4.9c-.3,-1.3,-.9,-2,-2.4,-2.4c-1.6,-.5,-3.2,-.6,-5.8,-.6c-3.6,0,-5.2,1.9,-6.7,7c-.6,1.9,-.9,3.5,-1.2,4.4L570.5,89h-6.9c0,0,-1.2,0,-1.7,.2c-.5,.2,-.7,.5,-1.1,1.4c0,0,-1.6,5.1,-1.6,5.5c-.1,.6,.1,1,.5,1.2c.5,.2,.8,.3,1.7,.3H568l-4.9,17.3c-1.8,6.3,-4,10.9,-6.3,13.5c-2.5,2.5,-6.3,4.2,-10.1,4.2c-2.2,0,-5.4,-.4,-6.5,-1.1c-1.2,-.5,-1.6,-1.6,-1.6,-3c0,-.8,.2,-2.2,.9,-4.3c.7,-2.4,1.1,-3.7,2.2,-6.5l1.5,-3.7c4.5,-11,6.7,-17.9,6.7,-20.5c0,-2.3,-.7,-4.2,-2,-5.3c-1.3,-1.4,-3.4,-2,-5.7,-2c-4.9,0,-9.7,2.2,-14.7,6.7C522.6,97.4,517,104.6,511,114.2c1.8,-5.5,3.9,-11.2,6.3,-17.1c2.4,-6.1,3.4,-8.8,3.4,-9.6c0,-.9,-.8,-1.7,-1.9,-1.9c-1.2,-.2,-6.1,-.9,-9.3,1.1c-2,1.2,-2.6,2.4,-4.2,8.5c-1.6,6,-2.7,10.2,-4.1,14.9c-2.3,8.1,-4.4,13.2,-7.3,16.9c-2.8,3.6,-6.5,5.6,-10.2,5.6c-3.7,0,-5.5,-.7,-6.7,-1.2c-1.2,-.6,-1.7,-1.8,-1.7,-3.3c0,-1.2,.7,-3.9,2.1,-7.9l.3,-.8l5.4,-16.6c.6,-2,1.6,-4.5,2.9,-7.9c1.3,-3.4,2,-5.6,2,-6.7c0,-.9,-.4,-1.5,-1.1,-2c-.9,-.5,-1.9,-.6,-3.4,-.6c-6.5,0,-10.4,2.9,-11.5,8.7c-.5,2.8,-1,5,-1.5,6.9c-2.9,11.1,-5.8,19,-9.2,23.8c-3.1,5.1,-6.9,7.2,-11.8,7.6c-4.5,.4,-6.6,-.7,-8.2,-1.3c.9,-1.1,1.8,-2.2,2.6,-3.4c2.6,-4.1,4.7,-8.6,6.3,-13.3c1.4,-4.9,2.2,-9.6,2.2,-14.3c0,-3.7,-.8,-6.6,-2.2,-8.8c-1.5,-2,-3.5,-3.1,-6.1,-3.1c-2.2,0,-4.2,.9,-5.7,2.6c-1.7,1.9,-2.4,4.1,-2.4,6.9c0,2,.5,3.4,1.6,4.6c.8,1.1,2.5,1.7,4.3,2.1c-.1,7.2,-2.1,13.6,-5.9,19.2c-3.8,5.7,-7.6,8.4,-11.6,8.4c-1.7,0,-3,-.4,-3.9,-1.6c-1,-1.2,-1.4,-2.9,-1.4,-5.1c0,-4.3,1,-9.1,3.2,-14.2c2,-5.1,5.2,-10.1,9.1,-15.2c1,-1.2,2.4,-2.6,4.4,-4.6c1.8,-1.8,2.6,-3.1,2.6,-4.1c0,-.6,-.2,-1.1,-.6,-1.4c-.4,-.3,-1.2,-.6,-2,-.6c-3.2,0,-6.6,1,-10.3,3c-3.8,2,-6.9,4.6,-9.6,7.7c-3.1,3.6,-5.5,7.7,-7.3,12.3c-1.8,4.6,-2.5,9,-2.5,13.1c0,1.6,0,3.1,.2,4.5c1.1,5.5,2.8,7.8,5.4,10.4c1.4,1.5,3.1,2.4,5.1,3.2c2.3,.8,4.4,1,7.3,1c3.7,0,7.3,-1,10.5,-3c.3,-.2,.6,-.4,.9,-.6c1.5,3.2,10.8,3.6,11.9,3.6c4,0,6.4,-1,9,-2.3c2.6,-1.4,5,-3.3,7.3,-6.1c.5,3,1.9,5.1,4.4,6.4c2.6,1.4,6.4,2,11,2c4.6,0,7.8,-.8,10,-1.8c2.3,-.9,4.3,-2.2,6,-4.1c-.5,1.1,-.8,1.9,-1,2.6c-.2,.6,-.2,1,-.2,1.4c0,.8,.2,1.4,.8,1.6c.7,.3,1.6,.3,3.3,.3c4.6,0,7.9,-2,9.4,-6.4c.8,-2.4,1.6,-4.6,2.4,-6.1c3.6,-8.3,7.7,-15.3,12.6,-21c4.7,-5.8,8,-8.6,10.5,-8.7c.6,0,1.2,0,1.6,.4c.4,.3,.4,.8,.4,1.5c0,.9,-1,3.5,-2.9,7.8c0,0,-4.2,9.9,-5.6,14.2c-1.1,3.5,-1.7,6.1,-1.7,7.6c0,3.6,1.5,6.3,4.5,8c2.9,1.7,7.7,2.7,14,2.7c5.3,0,8.1,-1.2,10.5,-2.1c2.6,-1,5.9,-2.6,8.5,-4.7c1.6,2.4,4.5,4.2,6.8,5.1c1.5,.6,4.7,1.3,6.8,1.5c5.5,.4,7.7,-1.6,8.7,-6.5c.4,-2,-2.6,-1.3,-3.7,-1.2c-2.1,.1,-5.3,-.6,-6.8,-2.2c-1.4,-1.4,-1.2,-2.5,-1.2,-3.9c0,-1,.8,-3.5,1.1,-5.1c.3,-1.5,.9,-3.2,1.4,-5.2L581,97.6h8.6c1.4,0,2.7,-.2,3.2,-.5c.7,-.3,1,-.8,1.3,-1.5l1.5,-4.3c0,-.1,.3,-1.3,-.4,-1.9M387.3,96.8c-4.2,6.3,-9.1,9.4,-14.8,9.4h-1.1c-.5,0,-.7,-.1,-1.2,-.1c.6,-3,.7,-6.1,1,-8.9c.3,-2.9,.4,-5.9,.4,-8.6V86.9c0,-3.9,-.2,-6.4,-.4,-7.2c-.4,-1,-1.1,-1.4,-2.1,-1.4c-.6,0,-2.1,.5,-4.3,1.7c-2.1,1,-3.8,2.2,-4.9,3.5c-1,.9,-1.6,3.1,-1.7,6.5c-.2,.6,-.2,1.1,-.2,1.3c-1.2,14.7,-3.2,26.6,-6.1,35.6c-2.8,9,-5.9,13.7,-9,13.7c-1.3,0,-2.2,-.8,-2.7,-1.9c-.7,-1.2,-.9,-2.9,-.9,-5.2c0,-3.3,.5,-7.3,1.8,-12.5c1.3,-5.1,3.1,-10.8,5.5,-16.9c2.1,-5.7,4.2,-10.9,6.9,-15.6c2.4,-4.8,5.1,-8.8,8,-12.4c3.6,-4.9,7.5,-8.8,11.6,-11.5c4.2,-3,8,-4.3,11.1,-4.3c3.1,0,5.4,1.1,7,3.3c1.5,2.3,2.4,5.7,2.4,10.3c0,8.9,-2.2,16.5,-6.3,22.9M409,73.7c0,-7.5,-2.1,-13.5,-5.9,-17.9c-3.9,-4.5,-9.2,-6.6,-15.9,-6.6c-7.3,0,-14.2,2.1,-20.7,6.7c-6.6,4.5,-13,11.2,-18.8,20c-6.2,9.2,-11.2,19.4,-15,30.2c-3.7,10.8,-5.6,20.3,-5.6,28.5c0,6.3,1.1,11.2,3.7,14.8c2.5,3.5,5.9,5.2,10.1,5.2c5.8,0,10.9,-2.9,15.2,-9.1c4.4,-6,8.5,-16.1,12.4,-30.3c1.9,.3,3.6,.7,5.2,.8c1.5,.2,2.8,.4,3.9,.4c4.9,0,9.4,-1.2,13.7,-4.2c4.1,-2.8,7.7,-7.1,10.6,-12.4c2.3,-4.3,4,-8.5,5.4,-13c1,-4.4,1.7,-8.7,1.7,-13.1M307.3,88.2c-2.4,0,-4.2,.9,-5.8,2.6c-1.5,1.9,-2.4,4.1,-2.4,6.8c0,2,.6,3.5,1.6,4.7c.9,1.1,2.4,1.8,4.4,2.1c-.2,7.1,-2.2,13.7,-6,19.2c-3.8,5.9,-7.6,8.6,-11.7,8.6c-1.6,0,-3,-.4,-3.8,-1.7c-1.1,-1.2,-1.5,-2.9,-1.5,-4.9c0,-4.4,1.1,-9.3,3.2,-14.5c2.1,-5.1,5.1,-10.2,9.2,-15.2c1,-1.3,2.4,-2.8,4.4,-4.6c1.8,-1.8,2.7,-3.2,2.7,-4.1c0,-.6,-.2,-1.1,-.6,-1.5c-.5,-.3,-1.2,-.6,-2.1,-.6c-3.2,0,-6.6,1.1,-10.4,3.1c-3.8,1.9,-7,4.6,-9.6,7.7c-3.2,3.7,-5.5,7.8,-7.2,12.4c-1.9,4.5,-2.8,9.1,-2.8,13.1c0,1.7,.2,3.2,.4,4.6c.3,1.4,.7,2.7,1.1,4.1c-1.3,.7,-6.2,2.6,-10.4,2.6c-2.9,0,-7.4,-.9,-9.5,-2.3c-2,-1.3,-3.1,-2.9,-3.1,-5.1c0,-1,.1,-2.2,.6,-3.9c.2,-1.4,.7,-3.2,1.3,-5.2L255,97.6h8.6c1.3,0,2.6,-.2,3.2,-.5c.6,-.3,.9,-.8,1.3,-1.5l1.4,-4.3c0,-.1,.3,-1.3,-.3,-1.9c-.7,-.5,-1.1,-.4,-2,-.4h-9.7l6.3,-18.2c.3,-.6,.5,-1.2,1.1,-2.7c.8,-2.2,1.2,-4.1,1,-4.9c-.3,-1.3,-.9,-2,-2.4,-2.4c-1.6,-.5,-3.1,-.6,-5.8,-.6c-3.6,0,-5.2,1.9,-6.7,7c-.6,1.9,-.9,3.5,-1.2,4.4L244.5,89h-7c0,0,-1.1,0,-1.7,.2c-.4,.2,-.7,.5,-1.1,1.4c0,0,-1.5,5.1,-1.5,5.5c-.1,.6,.1,1,.4,1.2c.5,.2,.8,.3,1.7,.3h6.6l-4.8,17.1c-2,6.5,-4.1,11.2,-6.4,13.6c-2.6,2.5,-5.9,3.9,-10.2,4.4h-.1c-3.5,.2,-5.8,-.4,-7.5,-.9c1,-1.2,2,-2.5,2.9,-4c2.8,-4.2,4.8,-8.6,6.3,-13.3c1.6,-4.9,2.3,-9.7,2.3,-14.4c0,-3.8,-.7,-6.7,-2.2,-8.8c-1.4,-2.1,-3.4,-3.1,-6.1,-3.1c-2.3,0,-4.4,.9,-5.9,2.6c-1.4,1.9,-2.2,4.1,-2.2,6.8c0,2,.6,3.5,1.4,4.7c1,1.1,2.5,1.8,4.5,2.1c-.1,7.1,-2.2,13.7,-5.9,19.2c-3.8,5.9,-7.8,8.6,-11.8,8.6c-1.7,0,-2.9,-.4,-4,-1.7c-.9,-1.2,-1.4,-2.9,-1.4,-4.9c0,-4.4,1.2,-9.3,3.3,-14.5c2.1,-5.1,5.1,-10.2,9.2,-15.2c1,-1.3,2.4,-2.8,4.2,-4.6c2,-1.8,2.9,-3.2,2.9,-4.1c0,-.6,-.2,-1.1,-.7,-1.5c-.4,-.3,-1.1,-.6,-2,-.6c-3.2,0,-6.7,1.1,-10.4,3.1c-3.8,1.9,-6.9,4.6,-9.6,7.7c-3.1,3.7,-5.5,7.8,-7.3,12.4c-1.7,4.5,-2.7,9.1,-2.7,13.1c0,1.7,.2,3.2,.5,4.6c.2,1.4,.5,2.7,1,4.1c0,0,-5.7,2.6,-10.4,2.6c-2.2,0,-5.5,-.5,-6.5,-1.2c-1.2,-.5,-1.7,-1.6,-1.7,-3.1c0,-.8,.3,-2.2,.9,-4.3c.5,-2,3.9,-10.8,3.9,-10.8c4.5,-11.3,6.5,-17.4,6.5,-20c0,-2.4,-.6,-4.2,-1.9,-5.5C168.6,86.6,166.6,86,164.2,86c-4.8,0,-9.7,2.2,-14.7,6.7c-5.1,4.5,-10.5,11.7,-16.6,21.5l19,-48.1c.3,-.7,.8,-1.9,1.3,-3.4c1.6,-3.7,2.3,-6.1,2.3,-7.3c0,-.9,-.6,-1.6,-1.6,-2.1c-1.1,-.4,-3.2,-.5,-6.4,-.5c-4.5,0,-7.4,3.6,-9.5,10.4c-1.3,4.1,-10.7,34.7,-10.7,34.7c0,0,-12.3,37.8,-12.6,39.5c-.3,2,-.3,3.3,5,3.3c4.7,0,8,-2.1,9.6,-6.6c.9,-2.3,1.2,-3.2,2.4,-6.1c3.5,-8.3,7.8,-15.3,12.6,-21.1c4.8,-5.8,8.4,-8.7,10.6,-8.7c.8,0,1.2,.1,1.6,.4c.3,.4,.6,.7,.6,1.5c0,.8,-1.1,3.6,-3.1,7.9l-.5,1.1c-2.2,5.4,-4,9.7,-5.1,13.1c-1.1,3.4,-1.7,6.1,-1.7,7.7c0,3.6,1.5,6.3,4.6,8.1c2.8,1.6,7.7,2.6,13.9,2.6c6.3,0,10.3,-1.2,10.3,-1.2c2.7,-.8,5.4,-1.8,8,-3c1.4,1.4,3.1,2.3,5.2,3.2c2,.9,4.3,1,7.1,1c3.5,0,6.8,-.9,9.9,-2.6c2.7,2.4,10.1,2.6,11.2,2.6c4.3,0,7.5,-1,10.6,-2.1c3,-1.4,5.6,-3.1,8.1,-5.2c1.6,2.4,4.2,4.1,7.7,5.4c3.4,1.3,7.8,1.9,12.9,1.9h1.6c3.1,-.1,6.3,-.5,8.8,-1.2c2.8,-.8,5.5,-1.8,8.1,-3c1.5,1.4,3.2,2.6,5.2,3.2c2,.9,4.5,1.1,7.2,1.1c3.8,0,7.3,-1.1,10.7,-3.2c3.2,-2.1,6.4,-5.3,9.3,-9.7c2.6,-4.2,4.7,-8.6,6.3,-13.3c1.4,-4.9,2.1,-9.7,2.1,-14.4c0,-3.8,-.7,-6.7,-2.1,-8.8c-1.5,-2.1,-3.4,-3.1,-6.1,-3.1M485.8,74.4c2.5,0,4.8,-.9,6.6,-2.9c1.7,-2,2.6,-4.4,2.6,-7.1c0,-2.2,-.5,-3.9,-2,-5.3c-1.4,-1.3,-3.2,-1.9,-5.1,-1.9c-2.4,0,-4.7,.8,-6.4,2.8c-1.8,2.1,-2.8,4.4,-2.8,7.3c0,2.2,.6,4.1,1.8,5.4c1.2,1.1,3,1.7,5.3,1.7M100.4,96.6c-4.1,6.4,-9,9.6,-14.7,9.6H84.4c-.4,0,-.6,-.2,-1.1,-.2c.5,-3,.7,-6,1.1,-8.8c.2,-3,.3,-5.9,.3,-8.7V86.9c0,-4,-.3,-6.5,-.4,-7.3c-.5,-1,-1.1,-1.4,-2.1,-1.4c-.7,0,-2.2,.6,-4.3,1.5C75.8,81,74.2,82.1,73,83.4c-1,1,-1.6,3.1,-1.8,6.5c0,.6,-.2,1.1,-.2,1.4c-1.1,14.6,-3.1,26.4,-6,35.6c-2.9,9,-5.9,13.6,-9,13.6c-1.3,0,-2.1,-.6,-2.8,-1.9c-.6,-1,-.8,-2.9,-.8,-5.2c0,-3.2,.6,-7.3,1.8,-12.4c1.3,-5.1,3.2,-10.8,5.4,-17C61.8,98.3,64,93.1,66.5,88.4c2.5,-4.7,5.2,-8.8,8,-12.5c3.8,-4.8,7.6,-8.7,11.7,-11.6c4.1,-2.7,7.9,-4.2,11,-4.2c3.2,0,5.6,1.3,7,3.5c1.8,2.3,2.4,5.5,2.4,10.3c0,8.9,-2.1,16.5,-6.2,22.7m19.9,-10C121.4,82.3,122,78,122,73.7c0,-7.7,-1.9,-13.6,-5.8,-18C112.3,51.3,107,49.2,100.3,49.2c-7.3,0,-14.1,2.2,-20.8,6.5C73,60.3,66.6,66.9,60.7,75.8C54.7,85,49.6,95.1,45.8,106c-3.7,10.9,-5.6,20.4,-5.6,28.6c0,6.3,1.1,11.2,3.7,14.8c2.4,3.5,5.8,5.3,10.1,5.3c5.8,0,10.9,-3.1,15.2,-9.2c4.3,-6,8.5,-16.2,12.3,-30.4c1.9,.4,3.7,.8,5.3,.9c1.6,.2,2.8,.3,3.9,.3c4.9,0,9.4,-1.2,13.7,-4.1c4.1,-2.9,7.8,-7.1,10.6,-12.6c2.4,-4.2,4.1,-8.4,5.3,-13Z" class="g0_1" />

</svg>
