<?xml version="1.0" encoding="UTF-8" standalone="no"?>
<svg
   xmlns:dc="http://purl.org/dc/elements/1.1/"
   xmlns:cc="http://creativecommons.org/ns#"
   xmlns:rdf="http://www.w3.org/1999/02/22-rdf-syntax-ns#"
   xmlns:svg="http://www.w3.org/2000/svg"
   xmlns="http://www.w3.org/2000/svg"
   viewBox="0 0 384.46667 91.986664"
   height="91.986664"
   width="384.46667"
   xml:space="preserve"
   id="svg2"
   version="1.1"><metadata
     id="metadata8"><rdf:RDF><cc:Work
         rdf:about=""><dc:format>image/svg+xml</dc:format><dc:type
           rdf:resource="http://purl.org/dc/dcmitype/StillImage" /></cc:Work></rdf:RDF></metadata><defs
     id="defs6"><clipPath
       id="clipPath20"
       clipPathUnits="userSpaceOnUse"><path
         id="path18"
         d="M 0,0 H 2883 V 690 H 0 Z" /></clipPath><clipPath
       id="clipPath26"
       clipPathUnits="userSpaceOnUse"><path
         id="path24"
         d="m 2823.97,277.102 c 0,11.488 -8.59,19.996 -20.24,19.996 -16.46,0 -31.49,-14.618 -31.49,-30.524 0,-11.808 8.52,-20.402 20.17,-20.402 16.22,0 31.56,14.937 31.56,30.93 z m 5.63,1.281 c 0,-19.36 -18.47,-37.352 -38.24,-37.352 -14.37,0 -24.74,10.442 -24.74,24.582 0,19.36 18.56,37.27 38.48,37.27 14.14,0 24.5,-10.36 24.5,-24.5 z m -333.68,104.039 -296.89,11.223 c -1.93,0.05 -2.83,-0.684 -3.17,-2.594 -8.62,-48.852 -17.25,-97.711 -25.89,-146.539 -0.43,-2.469 0.54,-3.641 3.05,-3.641 h 74.63 c 1.85,0 2.71,0.707 3.06,2.559 4.67,26.851 9.35,53.691 14.05,80.504 0.33,1.859 1.19,2.582 3.08,2.582 h 137.58 c 2.5,0 3.48,-1.172 3.04,-3.645 -4.62,-26.121 -9.25,-52.23 -13.88,-78.359 -0.44,-2.469 0.53,-3.641 3.05,-3.641 h 74.35 c 1.87,0 2.73,0.707 3.05,2.559 7.95,45.109 15.9,90.211 23.85,135.351 0.4,2.395 -0.5,3.543 -2.96,3.641 z m 25.94,147.441 h -235.89 c -0.74,0 -1.29,-0.199 -1.89,-0.656 -24.37,-18.988 -48.73,-37.945 -73.09,-56.941 -0.65,-0.508 -1,-1.063 -1.14,-1.907 -0.87,-4.789 -1.7,-9.574 -2.57,-14.363 -0.42,-2.453 0.53,-3.637 3.06,-3.637 h 298.94 c 1.88,0 2.72,0.723 3.06,2.579 4.19,23.746 8.37,47.523 12.57,71.289 0.43,2.468 -0.54,3.636 -3.05,3.636 z m -364.24,0 h -234.55 c -0.74,0 -1.32,-0.199 -1.91,-0.656 -24.4,-18.988 -48.81,-37.945 -73.23,-56.941 -0.65,-0.508 -1,-1.063 -1.14,-1.907 -0.84,-4.789 -1.68,-9.574 -2.51,-14.363 -0.44,-2.453 0.54,-3.637 3.05,-3.637 h 297.73 c 1.88,0 2.72,0.723 3.05,2.579 4.19,23.746 8.39,47.523 12.58,71.289 0.42,2.468 -0.54,3.636 -3.07,3.636 z m 722.67,0 h -296.07 c -1.87,0 -2.7,-0.707 -3.03,-2.558 -4.2,-23.785 -8.39,-47.524 -12.58,-71.309 -0.43,-2.453 0.53,-3.637 3.05,-3.637 h 296.07 c 1.88,0 2.73,0.723 3.05,2.579 4.17,23.746 8.38,47.523 12.58,71.289 0.43,2.468 -0.56,3.636 -3.07,3.636 z M 2741.14,372.879 c -23.88,0.887 -47.73,1.785 -71.6,2.687 -1.93,0.063 -2.83,-0.64 -3.17,-2.589 -7.54,-42.836 -15.09,-85.629 -22.64,-128.465 -0.42,-2.469 0.55,-3.641 3.07,-3.641 h 72.23 c 1.89,0 2.74,0.707 3.07,2.559 7.34,41.925 14.64,83.851 21.99,125.785 0.41,2.418 -0.51,3.562 -2.95,3.664 z m 64.92,-93.203 c 0,1.73 -0.78,2.207 -3.61,2.207 h -7.88 l -2.05,-9.531 h 7.87 c 2.61,0 3.79,0.632 4.49,2.285 0.48,0.941 1.18,4.176 1.18,5.039 z m 9.07,3.144 c 0,-2.668 -1.12,-7.632 -2.3,-9.761 -1.25,-2.282 -2.59,-3.301 -5.9,-4.094 2.99,-0.707 4.17,-1.887 4.17,-4.488 0,-0.707 -0.15,-1.098 -0.31,-2.122 l -1.5,-6.937 h -8.58 l 1.18,5.437 c 0.25,1.258 0.25,1.34 0.25,1.965 0,1.739 -0.95,2.446 -3.55,2.446 h -7.56 l -2.13,-9.848 h -8.5 l 7.17,33.633 h 17.24 c 7.24,0 10.32,-1.813 10.32,-6.231 z m -1059.29,35.535 h -215.63 c -2.53,0 -3.51,1.192 -3.06,3.649 5.45,30.844 10.87,61.719 16.35,92.547 0.41,2.414 -0.51,3.551 -2.96,3.66 -24.68,0.945 -49.35,1.891 -74.02,2.828 -1.94,0.066 -2.84,-0.633 -3.2,-2.535 -7.57,-42.742 -15.16,-85.492 -22.75,-128.211 -0.15,-0.961 0,-1.645 0.59,-2.438 11.58,-15.246 23.17,-30.488 34.77,-45.765 0.66,-0.863 1.37,-1.219 2.47,-1.219 h 254.87 c 1.89,0 2.73,0.707 3.06,2.559 4.2,23.769 8.36,47.523 12.56,71.293 0.43,2.476 -0.54,3.632 -3.05,3.632 z m -743.6,210.293 c -0.69,0.86 -1.38,1.215 -2.47,1.215 H 765.746 c -1.891,0 -2.726,-0.707 -3.055,-2.558 -16.668,-94.262 -33.347,-188.547 -50.003,-282.793 -0.442,-2.469 0.539,-3.641 3.058,-3.641 h 72.211 c 1.883,0 2.727,0.707 3.066,2.559 5.848,33.199 11.684,66.418 17.559,99.601 0.301,1.867 1.164,2.567 3.055,2.567 h 43.652 c 1.262,0 2.012,-0.403 2.66,-1.489 20.367,-33.91 40.692,-67.828 61.078,-101.73 0.649,-1.082 1.379,-1.508 2.653,-1.508 h 83.71 c 3.18,0 4.3,1.973 2.66,4.703 -19.202,31.766 -38.405,63.551 -57.609,95.317 -1.632,2.714 -0.523,4.707 2.645,4.707 h 78.414 c 1.87,0 2.72,0.711 3.06,2.57 5.03,28.512 10.07,57.016 15.12,85.5 0.42,2.402 -0.5,3.555 -2.93,3.637 -23.47,0.875 -46.961,1.758 -70.441,2.613 -1.93,0.086 -2.809,-0.637 -3.164,-2.535 -1.766,-9.903 -3.516,-19.824 -5.297,-29.731 -0.301,-1.867 -1.176,-2.566 -3.051,-2.566 H 823.16 c -2.504,0 -3.48,1.137 -3.058,3.629 2.371,13.695 4.722,27.394 7.078,41.086 0.316,1.851 1.172,2.558 3.054,2.558 h 220.146 c 1.88,0 2.73,0.723 3.06,2.543 l 2.75,15.278 c 0.18,0.972 0,1.691 -0.61,2.437 -14.46,18.699 -28.91,37.379 -43.34,56.031 z M 120.445,451.168 C 73.7383,443.297 70.6133,416.891 70.6133,416.891 l 31.0547,7.343 z M 635.148,318.754 c -0.691,-9.285 -1.781,-18.473 -3.207,-27.547 -44.566,9.141 -145.492,27.078 -236.16,23.277 0,0 117.84,-13.129 224.321,-73.703 -2.133,-6.789 -4.508,-13.511 -7.067,-20.125 -51.164,16.449 -142.32,34.539 -174.535,31.313 0,0 75.82,-19.016 158.496,-66.699 C 539.375,75.1484 424.059,0 291.184,0 199.813,0 116.77,35.5625 55.043,93.5469 223.254,-3.94922 366.93,89.2656 366.93,89.2656 c 0,0 -40.821,134.8244 -80.117,145.7074 0,0 -46.563,4.609 -106.829,-36.93 0,0 -54.964,-52.703 -76.886,6.227 -17.6722,47.535 -17.5707,63.171 -17.5707,63.171 0,0 24.0707,-23.668 52.5627,-25.277 0,0 -8.887,23.543 -9.469,39.598 0,0 25.727,-29.594 34.91,-31.199 0,0 82.813,26.656 37.102,68.203 -45.711,41.601 -54.938,34.679 -88.176,10.187 -15.789,-11.633 -9.359,-29.082 9.352,-68.57 0,0 -25.9067,8.906 -34.7699,32.512 0,0 -30.5899,-16.372 -8.836,-59.094 0,0 -32.2265,16.476 -37.957,41.262 0,0 -22.5156,-4.868 -29.6953,24.507 -7.19533,29.383 -7.06642,32.59 1.2422,36.735 8.3242,4.168 22.3672,-1.282 25.4843,5.398 0.5625,1.184 0.8907,6.129 0.8907,6.129 0,0 -35.58597,-7.664 -38.031281,4.488 -3.019529,15.098 44.781281,56.66 47.886681,62.903 3.1211,6.222 20.3204,64.207 46.3164,93.476 l -5.0703,-26.406 c 0,0 40.2575,45.773 57.1875,47.535 l -8.902,-23.398 c 0,0 44.41,36.168 122.465,53.508 43.351,9.648 22.582,2.718 81.078,20.308 12.359,3.707 26.078,-52.797 0.199,-99.773 0,0 20.469,17.476 27.082,58.41 0,0 60.797,-10.848 126.379,-38.762 -73.199,162.5 -232.762,178.91 -286.844,179.656 26.672,6.606 54.563,10.149 83.27,10.149 179.914,0 327.617,-137.742 343.507,-313.52 -41.425,9.098 -140.226,23.504 -277.101,-3.41 0,0 161.683,5.012 277.558,-54.242 z m 774.132,104.887 c -23.87,0.91 -47.73,1.8 -71.6,2.746 -1.95,0.043 -2.83,-0.664 -3.19,-2.578 -6.06,-34.293 -12.13,-68.586 -18.19,-102.871 -0.34,-1.852 -1.21,-2.583 -3.06,-2.583 h -137.92 c -2.51,0 -3.51,1.192 -3.04,3.649 6.25,35.461 12.53,70.906 18.8,106.332 0.43,2.43 -0.5,3.566 -2.94,3.648 -24.71,0.946 -49.41,1.887 -74.13,2.801 -1.94,0.078 -2.83,-0.64 -3.17,-2.551 -8.48,-48.113 -16.93,-96.23 -25.4,-144.293 -0.17,-0.976 0,-1.675 0.57,-2.445 11.08,-14.461 22.11,-28.945 33.19,-43.406 0.67,-0.863 1.38,-1.219 2.47,-1.219 h 256.19 c 1.88,0 2.73,0.707 3.05,2.559 10.44,58.855 20.86,117.703 31.3,176.562 0.42,2.403 -0.49,3.543 -2.93,3.649 z m 711.03,-105.286 h -215.63 c -2.5,0 -3.49,1.192 -3.06,3.649 4.6,26.324 9.17,52.66 13.79,78.976 0.42,2.418 -0.5,3.536 -2.95,3.649 -24.7,0.906 -49.41,1.836 -74.09,2.746 -1.95,0.059 -2.81,-0.668 -3.17,-2.59 l -20.14,-114.531 c -0.15,-0.922 0,-1.606 0.59,-2.399 11.6,-15.246 23.17,-30.488 34.75,-45.765 0.68,-0.863 1.39,-1.219 2.48,-1.219 h 254.86 c 1.89,0 2.73,0.707 3.07,2.559 4.18,23.769 8.39,47.523 12.58,71.293 0.41,2.476 -0.55,3.632 -3.08,3.632 z m -327.18,211.508 h -234.55 c -0.72,0 -1.32,-0.199 -1.91,-0.656 -24.35,-18.988 -48.7,-37.977 -73.05,-56.941 -0.63,-0.508 -1.01,-1.063 -1.14,-1.891 -0.87,-4.77 -1.78,-9.555 -2.65,-14.344 -0.47,-2.488 0.53,-3.672 3.05,-3.672 h 297.68 c 1.88,0 2.74,0.723 3.06,2.579 4.19,23.746 8.38,47.523 12.55,71.289 0.47,2.468 -0.53,3.636 -3.04,3.636 z m -372.81,-57.246 c 0.6,-0.746 0.79,-1.465 0.63,-2.437 -0.88,-5.09 -1.73,-10.157 -2.61,-15.242 -0.33,-1.856 -1.18,-2.579 -3.06,-2.579 h -297.24 c -2.49,0 -3.49,1.184 -3.04,3.637 4.14,23.758 8.28,47.524 12.43,71.309 0.32,1.851 1.18,2.558 3.06,2.558 h 242.7 c 1.06,0 1.75,-0.336 2.43,-1.168 14.9,-18.683 29.79,-37.379 44.7,-56.078 z" /></clipPath><linearGradient
       id="linearGradient32"
       spreadMethod="pad"
       gradientTransform="matrix(2883.46,0,0,-2883.46,0,344.962)"
       gradientUnits="userSpaceOnUse"
       y2="0"
       x2="1"
       y1="0"
       x1="0"><stop
         id="stop28"
         offset="0"
         style="stop-opacity:1;stop-color:#68bceb" /><stop
         id="stop30"
         offset="1"
         style="stop-opacity:1;stop-color:#2c77c6" /></linearGradient></defs><g
     transform="matrix(1.3333333,0,0,-1.3333333,0,91.986667)"
     id="g10"><g
       transform="scale(0.1)"
       id="g12"><g
         id="g14"><g
           clip-path="url(#clipPath20)"
           id="g16"><g
             clip-path="url(#clipPath26)"
             id="g22"><path
               id="path34"
               style="fill:url(#linearGradient32);fill-opacity:1;fill-rule:nonzero;stroke:none"
               d="m 267,0 v 1 h -13 v 1 h -6 v 1 h -7 v 1 h -7 v 1 h -7 v 1 h -5 v 1 h -4 v 1 h -4 v 1 h -4 v 1 h -4 v 1 h -5 v 1 h -4 v 1 h -4 v 1 h -3 v 1 h -3 v 1 h -3 v 1 h -2 v 1 h -3 v 1 h -3 v 1 h -3 v 1 h -3 v 1 h -3 v 1 h -3 v 1 h -2 v 1 h -3 v 1 h -2 v 1 h -2 v 1 h -2 v 1 h -2 v 1 h -2 v 1 h -3 v 1 h -2 v 1 h -2 v 1 h -2 v 1 h -2 v 1 h -3 v 1 h -2 v 1 h -2 v 1 h -1 v 1 h -2 v 1 h -2 v 1 h -2 v 1 h -1 v 1 h -2 v 1 h -2 v 1 h -1 v 1 h -2 v 1 h -2 v 1 h -2 v 1 h -1 v 1 h -2 v 1 h -2 v 1 h -2 v 1 h -1 v 1 h -2 v 1 h -1 v 1 h -1 v 1 h -2 v 1 h -1 v 1 h -2 v 1 h -1 v 1 h -1 v 1 h -2 v 1 h -1 v 1 h -2 v 1 h -1 v 1 h -1 v 1 h -2 v 1 h -1 v 1 h -2 v 1 h -1 v 1 h -1 v 1 h -2 v 1 h -1 v 1 h -1 v 1 h -1 v 1 h -1 v 1 h -2 v 1 h -1 v 1 h -1 v 1 h -1 v 1 h -2 v 1 h -1 v 1 h -1 v 1 h -1 v 1 h -1 v 1 h -2 v 1 h -1 v 1 h -1 v 1 h -1 v 1 h -1 v 1 h -1 v 2 h 1 v -1 h 2 v -1 h 2 v -1 h 2 v -1 h 1 v -1 h 2 v -1 h 2 v -1 h 2 v -1 h 2 v -1 h 3 v -1 h 2 v -1 h 2 v -1 h 2 v -1 h 2 v -1 h 2 v -1 h 2 v -1 h 2 v -1 h 2 v -1 h 3 v -1 h 2 v -1 h 3 v -1 h 2 v -1 h 3 v -1 h 3 v -1 h 2 v -1 h 3 v -1 h 2 v -1 h 3 v -1 h 3 v -1 h 3 v -1 h 4 v -1 h 3 v -1 h 4 v -1 h 3 v -1 h 4 v -1 h 3 v -1 h 4 v -1 h 5 v -1 h 5 v -1 h 6 v -1 h 5 v -1 h 6 v -1 h 10 v -1 h 11 v -1 h 40 v 1 h 12 v 1 h 9 v 1 h 6 v 1 h 6 v 1 h 6 v 1 h 5 v 1 h 4 v 1 h 4 v 1 h 5 v 1 h 4 v 1 h 3 v 1 h 3 v 1 h 4 v 1 h 3 v 1 h 3 v 1 h 3 v 1 h 3 v 1 h 3 v 1 h 2 v 1 h 3 v 1 h 3 v 1 h 2 v 1 h 3 v 1 h 2 v 1 h 2 v 1 h 3 v 1 h 2 v 1 h 2 v 1 h 2 v 1 h 2 v 1 h 2 v 1 h 2 v 1 h 2 v 1 h 2 v 1 h 2 v 1 h 2 v 1 h 2 v 1 h 1 v 1 h 2 v 3 h -1 v 3 h -1 v 3 h -1 v 3 h -1 v 3 h -1 v 3 h -1 v 3 h -1 v 3 h -1 v 2 h -1 v 3 h -1 v 3 h -1 v 3 h -1 v 2 h -1 v 3 h -1 v 3 h -1 v 2 h -1 v 3 h -1 v 3 h -1 v 2 h -1 v 3 h -1 v 2 h -1 v 2 h -1 v 3 h -1 v 2 h -1 v 3 h -1 v 2 h -1 v 2 h -1 v 2 h -1 v 3 h -1 v 2 h -1 v 2 h -1 v 2 h -1 v 2 h -1 v 2 h -1 v 2 h -1 v 2 h -1 v 2 h -1 v 2 h -1 v 2 h -1 v 2 h -1 v 2 h -1 v 2 h -1 v 2 h -1 v 1 h -1 v 2 h -1 v 2 h -1 v 1 h -1 v 2 h -1 v 2 h -1 v 1 h -1 v 2 h -1 v 1 h -1 v 2 h -1 v 1 h -1 v 2 h -1 v 1 h -1 v 1 h -1 v 2 h -1 v 1 h -1 v 1 h -1 v 1 h -1 v 1 h -1 v 1 h -1 v 1 h -1 v 2 h -1 v 1 h -2 v 1 h -1 v 1 h -1 v 1 h -1 v 1 h -2 v 1 h -1 v 1 h -2 v 1 h -2 v 1 h -3 v 1 h -8 v -1 h -10 v -1 h -7 v -1 h -5 v -1 h -4 v -1 h -4 v -1 h -4 v -1 h -3 v -1 h -3 v -1 h -3 v -1 h -3 v -1 h -3 v -1 h -2 v -1 h -3 v -1 h -2 v -1 h -2 v -1 h -3 v -1 h -2 v -1 h -2 v -1 h -2 v -1 h -2 v -1 h -2 v -1 h -2 v -1 h -2 v -1 h -2 v -1 h -1 v -1 h -2 v -1 h -2 v -1 h -1 v -1 h -2 v -1 h -2 v -1 h -1 v -1 h -2 v -1 h -2 v -1 h -1 v -1 h -2 v -1 h -1 v -1 h -2 v -1 h -1 v -1 h -1 v -1 h -1 v -1 h -1 v -1 h -1 v -1 h -2 v -1 h -1 v -1 h -1 v -1 h -2 v -1 h -1 v -1 h -2 v -1 h -2 v -1 h -1 v -1 h -2 v -1 h -2 v -1 h -2 v -1 h -2 v -1 h -2 v -1 h -3 v -1 h -3 v -1 h -5 v -1 h -13 v 1 h -4 v 1 h -2 v 1 h -2 v 1 h -2 v 1 h -1 v 1 h -1 v 1 h -2 v 1 h -1 v 1 h -1 v 1 h -1 v 2 h -1 v 1 h -1 v 1 h -1 v 2 h -1 v 1 h -1 v 2 h -1 v 2 h -1 v 2 h -1 v 2 h -1 v 3 h -1 v 3 h -1 v 2 h -1 v 3 h -1 v 3 h -1 v 3 h -1 v 3 h -1 v 3 h -1 v 3 h -1 v 3 h -1 v 3 h -1 v 4 h -1 v 3 h -1 v 4 h -1 v 4 h -1 v 4 h -1 v 5 h -1 v 5 h -1 v 6 h 1 v -1 h 2 v -1 h 1 v -1 h 1 v -1 h 1 v -1 h 1 v -1 h 2 v -1 h 1 v -1 h 1 v -1 h 2 v -1 h 1 v -1 h 2 v -1 h 1 v -1 h 2 v -1 h 2 v -1 h 1 v -1 h 2 v -1 h 2 v -1 h 3 v -1 h 2 v -1 h 2 v -1 h 3 v -1 h 3 v -1 h 3 v -1 h 5 v -1 h 5 v 2 h -1 v 3 h -1 v 3 h -1 v 3 h -1 v 4 h -1 v 3 h -1 v 4 h -1 v 5 h -1 v 7 h -1 v 5 h 2 v -1 h 1 v -1 h 1 v -2 h 1 v -1 h 1 v -1 h 1 v -1 h 1 v -1 h 1 v -1 h 1 v -1 h 1 v -1 h 1 v -1 h 1 v -1 h 1 v -1 h 1 v -1 h 1 v -1 h 1 v -1 h 1 v -1 h 1 v -1 h 1 v -1 h 1 v -1 h 1 v -1 h 1 v -1 h 2 v -1 h 1 v -1 h 1 v -1 h 1 v -1 h 2 v -1 h 1 v -1 h 2 v -1 h 1 v -1 h 2 v 1 h 3 v 1 h 3 v 1 h 2 v 1 h 2 v 1 h 3 v 1 h 2 v 1 h 2 v 1 h 2 v 1 h 2 v 1 h 1 v 1 h 2 v 1 h 2 v 1 h 1 v 1 h 2 v 1 h 1 v 1 h 2 v 1 h 1 v 1 h 2 v 1 h 1 v 1 h 1 v 1 h 1 v 1 h 1 v 1 h 1 v 1 h 1 v 1 h 1 v 1 h 1 v 1 h 1 v 1 h 1 v 2 h 1 v 2 h 1 v 2 h 1 v 2 h 1 v 4 h 1 v 6 h -1 v 4 h -1 v 3 h -1 v 1 h -1 v 2 h -1 v 2 h -1 v 1 h -1 v 1 h -1 v 2 h -1 v 1 h -1 v 1 h -1 v 1 h -1 v 1 h -1 v 1 h -1 v 1 h -1 v 1 h -1 v 1 h -1 v 1 h -2 v 1 h -1 v 1 h -1 v 1 h -1 v 1 h -1 v 1 h -2 v 1 h -1 v 1 h -1 v 1 h -1 v 1 h -1 v 1 h -2 v 1 h -1 v 1 h -1 v 1 h -2 v 1 h -1 v 1 h -2 v 1 h -1 v 1 h -1 v 1 h -2 v 1 h -2 v 1 h -2 v 1 h -2 v 1 h -2 v 1 h -2 v 1 h -2 v 1 h -5 v 1 h -8 v -1 h -5 v -1 h -2 v -1 h -2 v -1 h -3 v -1 h -2 v -1 h -1 v -1 h -2 v -1 h -1 v -1 h -2 v -1 h -1 v -1 h -2 v -1 h -1 v -1 h -2 v -1 h -1 v -1 h -1 v -1 h -2 v -1 h -1 v -1 h -2 v -1 h -1 v -1 h -1 v -1 h -1 v -1 h -1 v -1 h -1 v -1 h -1 v -1 h -1 v -2 h -1 v -2 h -1 v -4 h -1 v -7 h 1 v -5 h 1 v -4 h 1 v -4 h 1 v -2 h 1 v -3 h 1 v -3 h 1 v -2 h 1 v -2 h 1 v -3 h 1 v -2 h 1 v -2 h 1 v -3 h 1 v -2 h 1 v -2 h 1 v -2 h 1 v -2 h 1 v -2 h 1 v -3 h -2 v 1 h -3 v 1 h -2 v 1 h -1 v 1 h -2 v 1 h -2 v 1 h -1 v 1 h -2 v 1 h -1 v 1 h -2 v 1 h -1 v 1 h -1 v 1 h -1 v 1 h -1 v 1 h -1 v 1 h -1 v 1 h -1 v 1 h -1 v 1 h -1 v 1 h -1 v 1 h -1 v 2 h -1 v 1 h -1 v 1 h -1 v 2 h -1 v 2 h -1 v 2 h -1 v 2 h -1 v -1 h -1 v -1 h -1 v -1 h -2 v -1 h -1 v -1 h -1 v -2 h -1 v -1 h -1 v -1 h -1 v -2 h -1 v -1 h -1 v -2 h -1 v -3 h -1 v -3 h -1 v -6 h -1 v -8 h 1 v -7 h 1 v -4 h 1 v -3 h 1 v -2 h 1 v -3 h 1 v -2 h 1 v -2 h 1 v -2 h -2 v 1 h -1 v 1 h -2 v 1 h -2 v 1 h -1 v 1 h -2 v 1 h -1 v 1 h -2 v 1 h -1 v 1 h -1 v 1 h -2 v 1 h -1 v 1 h -1 v 1 h -1 v 1 h -1 v 1 h -1 v 1 h -1 v 1 h -2 v 1 h -1 v 2 h -1 v 1 h -1 v 1 h -1 v 1 h -1 v 1 h -1 v 2 h -1 v 1 h -1 v 2 h -1 v 1 h -1 v 2 h -1 v 2 h -1 v 2 h -1 v 3 h -1 v 2 h -7 v 1 h -4 v 1 h -3 v 1 h -2 v 1 h -1 v 1 h -2 v 1 h -1 v 1 h -1 v 1 h -1 v 1 h -1 v 2 h -1 v 1 h -1 v 2 h -1 v 1 h -1 v 3 h -1 v 2 h -1 v 3 h -1 v 4 H 9 v 5 H 8 v 4 H 7 v 4 H 6 v 6 H 5 v 11 h 1 v 2 h 1 v 1 h 1 v 1 h 1 v 1 h 2 v 1 h 2 v 1 h 7 v 1 h 13 v 1 h 2 v 1 h 1 v 1 h 1 v 4 h 1 v 1 h -4 v -1 h -7 v -1 H 10 v 1 H 6 v 1 H 3 v 1 H 2 v 1 H 1 v 1 H 0 v 9 h 1 v 2 h 1 v 2 h 1 v 2 h 1 v 2 h 1 v 1 h 1 v 2 h 1 v 1 h 1 v 1 h 1 v 2 h 1 v 1 h 1 v 1 h 1 v 2 h 1 v 1 h 1 v 1 h 1 v 1 h 1 v 1 h 1 v 1 h 1 v 1 h 1 v 2 h 1 v 1 h 1 v 1 h 1 v 1 h 1 v 1 h 1 v 1 h 1 v 1 h 1 v 1 h 1 v 1 h 1 v 1 h 1 v 1 h 1 v 1 h 1 v 1 h 1 v 1 h 1 v 1 h 1 v 1 h 1 v 2 h 1 v 1 h 1 v 1 h 1 v 1 h 1 v 1 h 1 v 1 h 1 v 1 h 1 v 1 h 1 v 1 h 1 v 1 h 1 v 1 h 1 v 1 h 1 v 2 h 1 v 2 h 1 v 3 h 1 v 3 h 1 v 2 h 1 v 3 h 1 v 3 h 1 v 2 h 1 v 3 h 1 v 3 h 1 v 2 h 1 v 3 h 1 v 2 h 1 v 3 h 1 v 2 h 1 v 3 h 1 v 2 h 1 v 2 h 1 v 2 h 1 v 3 h 1 v 2 h 1 v 2 h 1 v 2 h 1 v 2 h 1 v 2 h 1 v 2 h 1 v 2 h 1 v 2 h 1 v 2 h 1 v 2 h 1 v 1 h 1 v 2 h 1 v 2 h 1 v 1 h 1 v 2 h 1 v 2 h 1 v 1 h 1 v 2 h 1 v 1 h 1 v 2 h 1 v 1 h 1 v 1 h 1 v 2 h 1 v 1 h 1 v 2 h 1 v 1 h 1 v 1 h 2 v -3 h -1 v -5 h -1 v -5 h -1 v -5 h -1 v -5 h -1 v -1 h 1 v 1 h 1 v 1 h 1 v 1 h 1 v 1 h 1 v 1 h 1 v 1 h 1 v 1 h 1 v 1 h 1 v 1 h 1 v 1 h 1 v 1 h 1 v 1 h 1 v 1 h 1 v 1 h 1 v 1 h 1 v 1 h 1 v 1 h 1 v 1 h 1 v 1 h 1 v 1 h 1 v 1 h 1 v 1 h 1 v 1 h 1 v 1 h 1 v 1 h 1 v 1 h 1 v 1 h 1 v 1 h 1 v 1 h 1 v 1 h 2 v 1 h 1 v 1 h 1 v 1 h 1 v 1 h 1 v 1 h 2 v 1 h 1 v 1 h 1 v 1 h 2 v 1 h 1 v 1 h 2 v 1 h 1 v 1 h 2 v 1 h 2 v 1 h 3 v 1 h 4 v -2 h -1 v -2 h -1 v -3 h -1 v -3 h -1 v -2 h -1 v -3 h -1 v -3 h -1 v -2 h -1 v -1 h 1 v 1 h 2 v 1 h 1 v 1 h 2 v 1 h 1 v 1 h 2 v 1 h 1 v 1 h 2 v 1 h 1 v 1 h 2 v 1 h 2 v 1 h 1 v 1 h 2 v 1 h 2 v 1 h 2 v 1 h 1 v 1 h 2 v 1 h 2 v 1 h 2 v 1 h 2 v 1 h 2 v 1 h 2 v 1 h 2 v 1 h 2 v 1 h 2 v 1 h 2 v 1 h 2 v 1 h 2 v 1 h 2 v 1 h 3 v 1 h 2 v 1 h 2 v 1 h 3 v 1 h 2 v 1 h 2 v 1 h 3 v 1 h 3 v 1 h 3 v 1 h 2 v 1 h 3 v 1 h 3 v 1 h 3 v 1 h 3 v 1 h 3 v 1 h 3 v 1 h 4 v 1 h 3 v 1 h 4 v 1 h 4 v 1 h 3 v 1 h 4 v 1 h 5 v 1 h 4 v 1 h 5 v 1 h 5 v 1 h 5 v 1 h 5 v 1 h 5 v 1 h 5 v 1 h 4 v 1 h 4 v 1 h 4 v 1 h 3 v 1 h 4 v 1 h 3 v 1 h 4 v 1 h 3 v 1 h 3 v 1 h 4 v 1 h 3 v 1 h 3 v 1 h 4 v 1 h 4 v -1 h 2 v -1 h 1 v -1 h 1 v -1 h 1 v -2 h 1 v -2 h 1 v -2 h 1 v -3 h 1 v -3 h 1 v -5 h 1 v -6 h 1 v -31 h -1 v -7 h -1 v -4 h -1 v -5 h -1 v -3 h -1 v -4 h -1 v -3 h -1 v -2 h -1 v -3 h -1 v -2 h -1 v -3 h -1 v -1 h 1 v 1 h 1 v 2 h 1 v 1 h 1 v 1 h 1 v 2 h 1 v 1 h 1 v 2 h 1 v 2 h 1 v 2 h 1 v 1 h 1 v 2 h 1 v 2 h 1 v 3 h 1 v 2 h 1 v 2 h 1 v 3 h 1 v 3 h 1 v 3 h 1 v 3 h 1 v 4 h 1 v 4 h 1 v 5 h 1 v 2 h 5 v -1 h 5 v -1 h 5 v -1 h 4 v -1 h 4 v -1 h 4 v -1 h 4 v -1 h 4 v -1 h 4 v -1 h 4 v -1 h 3 v -1 h 4 v -1 h 4 v -1 h 3 v -1 h 4 v -1 h 3 v -1 h 3 v -1 h 3 v -1 h 3 v -1 h 3 v -1 h 4 v -1 h 3 v -1 h 2 v -1 h 3 v -1 h 3 v -1 h 3 v -1 h 3 v -1 h 3 v -1 h 2 v -1 h 3 v -1 h 3 v -1 h 2 v -1 h 3 v -1 h 2 v -1 h 3 v -1 h 2 v -1 h 3 v -1 h 2 v 2 h -1 v 2 h -1 v 2 h -1 v 2 h -1 v 2 h -1 v 1 h -1 v 2 h -1 v 2 h -1 v 2 h -1 v 2 h -1 v 2 h -1 v 2 h -1 v 2 h -1 v 2 h -1 v 1 h -1 v 2 h -1 v 1 h -1 v 2 h -1 v 1 h -1 v 2 h -1 v 1 h -1 v 2 h -1 v 2 h -1 v 1 h -1 v 2 h -1 v 1 h -1 v 2 h -1 v 1 h -1 v 2 h -1 v 1 h -1 v 2 h -1 v 1 h -1 v 1 h -1 v 2 h -1 v 1 h -1 v 1 h -1 v 1 h -1 v 2 h -1 v 1 h -1 v 1 h -1 v 1 h -1 v 2 h -1 v 1 h -1 v 1 h -1 v 1 h -1 v 2 h -1 v 1 h -1 v 1 h -1 v 1 h -1 v 1 h -1 v 1 h -1 v 1 h -1 v 1 h -1 v 1 h -1 v 1 h -1 v 1 h -1 v 1 h -1 v 2 h -1 v 1 h -1 v 1 h -1 v 1 h -1 v 1 h -1 v 1 h -1 v 1 h -1 v 1 h -1 v 1 h -1 v 1 h -1 v 1 h -1 v 1 h -2 v 1 h -1 v 1 h -1 v 1 h -1 v 1 h -1 v 1 h -1 v 1 h -2 v 1 h -1 v 1 h -1 v 1 h -1 v 1 h -1 v 1 h -2 v 1 h -1 v 1 h -1 v 1 h -1 v 1 h -1 v 1 h -2 v 1 h -1 v 1 h -2 v 1 h -1 v 1 h -1 v 1 h -2 v 1 h -1 v 1 h -2 v 1 h -1 v 1 h -1 v 1 h -2 v 1 h -1 v 1 h -2 v 1 h -1 v 1 h -2 v 1 h -2 v 1 h -1 v 1 h -2 v 1 h -2 v 1 h -1 v 1 h -2 v 1 h -2 v 1 h -1 v 1 h -2 v 1 h -2 v 1 h -2 v 1 h -2 v 1 h -2 v 1 h -2 v 1 h -2 v 1 h -2 v 1 h -2 v 1 h -2 v 1 h -2 v 1 h -2 v 1 h -2 v 1 h -2 v 1 h -3 v 1 h -2 v 1 h -3 v 1 h -2 v 1 h -3 v 1 h -2 v 1 h -3 v 1 h -2 v 1 h -4 v 1 h -3 v 1 h -3 v 1 h -3 v 1 h -3 v 1 h -3 v 1 h -3 v 1 h -4 v 1 h -4 v 1 h -4 v 1 h -4 v 1 h -4 v 1 h -5 v 1 h -5 v 1 h -5 v 1 h -6 v 1 h -7 v 1 h -7 v 1 h -9 v 1 h -12 v 1 h -18 v 1 h 1 v 1 h 4 v 1 h 5 v 1 h 6 v 1 h 6 v 1 h 6 v 1 h 6 v 1 h 5 v 1 h 11 v 1 h 12 v 1 h 46 v -1 h 12 v -1 h 7 v -1 h 7 v -1 h 7 v -1 h 7 v -1 h 5 v -1 h 4 v -1 h 4 v -1 h 5 v -1 h 4 v -1 h 4 v -1 h 4 v -1 h 4 v -1 h 3 v -1 h 3 v -1 h 3 v -1 h 3 v -1 h 3 v -1 h 2 v -1 h 3 v -1 h 3 v -1 h 3 v -1 h 3 v -1 h 2 v -1 h 3 v -1 h 2 v -1 h 2 v -1 h 2 v -1 h 3 v -1 h 2 v -1 h 2 v -1 h 2 v -1 h 2 v -1 h 3 v -1 h 2 v -1 h 2 v -1 h 2 v -1 h 2 v -1 h 1 v -1 h 2 v -1 h 2 v -1 h 2 v -1 h 2 v -1 h 1 v -1 h 2 v -1 h 2 v -1 h 2 v -1 h 1 v -1 h 2 v -1 h 2 v -1 h 2 v -1 h 1 v -1 h 2 v -1 h 1 v -1 h 2 v -1 h 1 v -1 h 2 v -1 h 1 v -1 h 1 v -1 h 2 v -1 h 1 v -1 h 2 v -1 h 1 v -1 h 2 v -1 h 1 v -1 h 1 v -1 h 2 v -1 h 1 v -1 h 2 v -1 h 1 v -1 h 1 v -1 h 2 v -1 h 1 v -1 h 1 v -1 h 1 v -1 h 1 v -1 h 2 v -1 h 1 v -1 h 1 v -1 h 1 v -1 h 1 v -1 h 2 v -1 h 1 v -1 h 1 v -1 h 1 v -1 h 1 v -1 h 1 v -1 h 2 v -1 h 1 v -1 h 1 v -1 h 1 v -1 h 1 v -1 h 1 v -1 h 1 v -1 h 1 v -1 h 1 v -1 h 1 v -1 h 1 v -1 h 1 v -1 h 1 v -1 h 1 v -1 h 1 v -1 h 1 v -1 h 1 v -1 h 1 v -1 h 1 v -1 h 1 v -1 h 1 v -1 h 1 v -1 h 1 v -1 h 1 v -1 h 1 v -1 h 1 v -1 h 1 v -2 h 1 v -1 h 1 v -1 h 1 v -1 h 1 v -1 h 1 v -2 h 1 v -1 h 1 v -1 h 1 v -1 h 1 v -1 h 1 v -2 h 1 v -1 h 1 v -1 h 1 v -1 h 1 v -1 h 1 v -2 h 1 v -1 h 1 v -1 h 1 v -1 h 1 v -2 h 1 v -1 h 1 v -2 h 1 v -1 h 1 v -2 h 1 v -1 h 1 v -2 h 1 v -1 h 1 v -2 h 1 v -1 h 1 v -1 h 1 v -2 h 1 v -1 h 1 v -2 h 1 v -1 h 1 v -2 h 1 v -1 h 1 v -2 h 1 v -2 h 1 v -1 h 1 v -2 h 1 v -2 h 1 v -2 h 1 v -2 h 1 v -1 h 1 v -2 h 1 v -2 h 1 v -2 h 1 v -2 h 1 v -1 h 1 v -2 h 1 v -2 h 1 v -2 h 1 v -2 h 1 v -2 h 1 v -3 h 1 v -2 h 1 v -2 h 1 v -2 h 1 v -3 h 1 v -2 h 1 v -2 h 1 v -2 h 1 v -3 h 1 v -2 h 1 v -2 h 1 v -3 h 1 v -3 h 1 v -3 h 1 v -3 h 1 v -3 h 1 v -3 h 1 v -3 h 1 v -3 h 1 v -3 h 1 v -3 h 1 v -4 h 1 v -5 h 1 v -4 h 1 v -4 h 1 v -4 h 1 v -5 h 1 v -4 h 1 v -6 h 1 v -6 h 1 v -7 h 1 v -6 h 1 v -9 h -4 v 1 h -4 v 1 h -6 v 1 h -5 v 1 h -6 v 1 h -7 v 1 h -7 v 1 h -8 v 1 h -8 v 1 h -11 v 1 h -13 v 1 h -20 v 1 h -49 v -1 h -21 v -1 h -14 v -1 h -11 v -1 h -11 v -1 h -8 v -1 h -8 v -1 h -8 v -1 h -7 v -1 h -6 v -1 h -7 v -1 h -6 v -1 h -6 v -1 h -5 v -1 h 8 v -1 h 28 v -1 h 16 v -1 h 13 v -1 h 10 v -1 h 10 v -1 h 8 v -1 h 8 v -1 h 7 v -1 h 7 v -1 h 6 v -1 h 7 v -1 h 5 v -1 h 5 v -1 h 5 v -1 h 6 v -1 h 5 v -1 h 4 v -1 h 4 v -1 h 5 v -1 h 4 v -1 h 4 v -1 h 4 v -1 h 4 v -1 h 3 v -1 h 4 v -1 h 3 v -1 h 4 v -1 h 3 v -1 h 3 v -1 h 3 v -1 h 4 v -1 h 3 v -1 h 3 v -1 h 3 v -1 h 3 v -1 h 2 v -1 h 3 v -1 h 2 v -1 h 3 v -1 h 3 v -1 h 2 v -1 h 3 v -1 h 2 v -1 h 3 v -1 h 2 v -1 h 2 v -1 h 2 v -1 h 3 v -1 h 2 v -1 h 2 v -1 h 2 v -1 h 2 v -1 h 2 v -1 h 2 v -1 h 1 v -3 h -1 v -8 h -1 v -9 h -1 v -8 h -5 v 1 h -6 v 1 h -5 v 1 h -5 v 1 h -5 v 1 h -6 v 1 h -6 v 1 h -5 v 1 h -6 v 1 h -7 v 1 h -6 v 1 h -6 v 1 h -7 v 1 h -7 v 1 h -8 v 1 h -7 v 1 h -8 v 1 h -9 v 1 h -10 v 1 h -9 v 1 h -13 v 1 h -13 v 1 h -17 v 1 h -50 v -1 h 6 v -1 h 6 v -1 h 6 v -1 h 5 v -1 h 5 v -1 h 5 v -1 h 4 v -1 h 5 v -1 h 4 v -1 h 5 v -1 h 4 v -1 h 4 v -1 h 4 v -1 h 4 v -1 h 3 v -1 h 4 v -1 h 4 v -1 h 3 v -1 h 4 v -1 h 3 v -1 h 3 v -1 h 4 v -1 h 3 v -1 h 3 v -1 h 3 v -1 h 3 v -1 h 3 v -1 h 4 v -1 h 2 v -1 h 3 v -1 h 3 v -1 h 3 v -1 h 3 v -1 h 2 v -1 h 3 v -1 h 3 v -1 h 2 v -1 h 3 v -1 h 2 v -1 h 3 v -1 h 2 v -1 h 3 v -1 h 3 v -1 h 2 v -1 h 2 v -1 h 2 v -1 h 3 v -1 h 2 v -1 h 2 v -1 h 3 v -1 h 2 v -1 h 2 v -1 h 2 v -1 h 2 v -1 h 2 v -1 h 2 v -1 h 2 v -1 h 2 v -1 h 3 v -1 h 2 v -1 h 2 v -1 h 2 v -1 h 2 v -1 h 1 v -1 h 2 v -1 h 2 v -1 h 2 v -1 h 2 v -1 h 2 v -1 h 2 v -1 h 1 v -1 h 2 v -1 h 1 v -1 h -1 v -3 h -1 v -3 h -1 v -3 h -1 v -3 h -1 v -2 h -1 v -3 h -1 v -3 h -3 v 1 h -3 v 1 h -3 v 1 h -3 v 1 h -4 v 1 h -3 v 1 h -4 v 1 h -4 v 1 h -4 v 1 h -3 v 1 h -4 v 1 h -4 v 1 h -4 v 1 h -4 v 1 h -5 v 1 h -4 v 1 h -5 v 1 h -4 v 1 h -4 v 1 h -5 v 1 h -5 v 1 h -5 v 1 h -5 v 1 h -6 v 1 h -6 v 1 h -5 v 1 h -6 v 1 h -7 v 1 h -7 v 1 h -8 v 1 h -9 v 1 h -12 v 1 h -13 v -1 h 3 v -1 h 4 v -1 h 3 v -1 h 3 v -1 h 3 v -1 h 4 v -1 h 3 v -1 h 3 v -1 h 3 v -1 h 3 v -1 h 2 v -1 h 3 v -1 h 3 v -1 h 3 v -1 h 3 v -1 h 2 v -1 h 3 v -1 h 3 v -1 h 2 v -1 h 3 v -1 h 2 v -1 h 3 v -1 h 2 v -1 h 3 v -1 h 2 v -1 h 3 v -1 h 2 v -1 h 2 v -1 h 3 v -1 h 2 v -1 h 2 v -1 h 3 v -1 h 2 v -1 h 2 v -1 h 2 v -1 h 3 v -1 h 2 v -1 h 2 v -1 h 2 v -1 h 2 v -1 h 2 v -1 h 2 v -1 h 2 v -1 h 2 v -1 h 2 v -1 h 3 v -1 h 2 v -1 h 2 v -1 h 2 v -1 h 2 v -1 h 1 v -1 h 2 v -1 h 2 v -1 h 2 v -1 h 2 v -1 h 2 v -1 h 2 v -1 h 2 v -1 h 1 v -1 h 2 v -1 h 2 v -1 h 2 v -1 h 2 v -1 h 1 v -1 h 2 v -1 h 1 v -3 h -1 v -2 h -1 v -2 h -1 v -2 h -1 v -1 h -1 v -2 h -1 v -2 h -1 v -1 h -1 v -2 h -1 v -2 h -1 v -2 h -1 v -1 h -1 v -2 h -1 v -1 h -1 v -2 h -1 v -1 h -1 v -2 h -1 v -1 h -1 v -2 h -1 v -1 h -1 v -2 h -1 v -1 h -1 v -2 h -1 v -1 h -1 v -2 h -1 v -1 h -1 v -1 h -1 v -2 h -1 v -1 h -1 v -1 h -1 v -2 h -1 v -1 h -1 v -1 h -1 v -2 h -1 v -1 h -1 v -1 h -1 v -2 h -1 v -1 h -1 v -1 h -1 v -1 h -1 v -1 h -1 v -2 h -1 v -1 h -1 v -1 h -1 v -1 h -1 v -1 h -1 v -1 h -1 v -1 h -1 v -2 h -1 v -1 h -1 v -1 h -1 v -1 h -1 v -1 h -1 v -1 h -1 v -1 h -1 v -1 h -1 v -1 h -1 v -1 h -1 v -1 h -1 v -1 h -1 v -1 h -1 v -1 h -1 v -1 h -1 v -1 h -1 v -1 h -1 v -1 h -1 v -1 h -1 v -1 h -1 v -1 h -1 v -1 h -1 v -1 h -1 v -1 h -1 v -1 h -1 v -1 h -1 v -1 h -1 v -1 h -2 v -1 h -1 v -1 h -1 v -1 h -1 v -1 h -1 v -1 h -1 v -1 h -1 v -1 h -2 v -1 h -1 v -1 h -1 v -1 h -1 v -1 h -1 v -1 h -2 v -1 h -1 v -1 h -1 v -1 h -2 v -1 h -1 v -1 h -1 v -1 h -2 v -1 h -1 v -1 h -1 v -1 h -2 v -1 h -1 v -1 h -1 v -1 h -2 v -1 h -1 v -1 h -2 v -1 h -1 v -1 h -2 v -1 h -1 v -1 h -2 v -1 h -1 v -1 h -2 v -1 h -1 v -1 h -2 v -1 h -1 v -1 h -2 v -1 h -2 v -1 h -1 v -1 h -2 v -1 h -2 v -1 h -2 v -1 h -1 v -1 h -2 v -1 h -2 v -1 h -2 v -1 h -1 v -1 h -2 v -1 h -2 v -1 h -2 v -1 h -2 v -1 h -2 v -1 h -2 v -1 h -2 v -1 h -2 v -1 h -2 v -1 h -2 v -1 h -3 v -1 h -2 v -1 h -2 v -1 h -3 v -1 h -2 v -1 h -3 v -1 h -2 v -1 h -3 v -1 h -2 v -1 h -3 v -1 h -3 v -1 h -3 v -1 h -3 v -1 h -3 v -1 h -3 v -1 h -3 v -1 h -3 v -1 h -3 v -1 h -4 v -1 h -4 v -1 h -4 V 9 h -4 V 8 h -4 V 7 h -5 V 6 h -6 V 5 h -6 V 4 h -5 V 3 h -8 V 2 h -9 V 1 h -9 V 0 Z m 447,240 v 1 h -1 v 1 h -1 v 5 h 1 v 5 h 1 v 6 h 1 v 6 h 1 v 5 h 1 v 6 h 1 v 6 h 1 v 5 h 1 v 6 h 1 v 6 h 1 v 5 h 1 v 6 h 1 v 6 h 1 v 5 h 1 v 6 h 1 v 6 h 1 v 5 h 1 v 6 h 1 v 6 h 1 v 5 h 1 v 6 h 1 v 6 h 1 v 5 h 1 v 6 h 1 v 6 h 1 v 5 h 1 v 6 h 1 v 5 h 1 v 6 h 1 v 6 h 1 v 5 h 1 v 6 h 1 v 6 h 1 v 5 h 1 v 6 h 1 v 6 h 1 v 5 h 1 v 6 h 1 v 6 h 1 v 5 h 1 v 6 h 1 v 6 h 1 v 5 h 1 v 6 h 1 v 6 h 1 v 5 h 1 v 6 h 1 v 6 h 1 v 5 h 1 v 6 h 1 v 5 h 1 v 1 h 249 v -1 h 1 v -1 h 1 v -1 h 1 v -1 h 1 v -2 h 1 v -1 h 1 v -1 h 1 v -2 h 1 v -1 h 1 v -1 h 1 v -1 h 1 v -2 h 1 v -1 h 1 v -1 h 1 v -2 h 1 v -1 h 1 v -1 h 1 v -2 h 1 v -1 h 1 v -1 h 1 v -1 h 1 v -2 h 1 v -1 h 1 v -1 h 1 v -2 h 1 v -1 h 1 v -1 h 1 v -1 h 1 v -2 h 1 v -1 h 1 v -1 h 1 v -2 h 1 v -1 h 1 v -1 h 1 v -2 h 1 v -1 h 1 v -1 h 1 v -1 h 1 v -2 h 1 v -1 h 1 v -1 h 1 v -2 h 1 v -1 h 1 v -1 h 1 v -2 h 1 v -3 h -1 v -6 h -1 v -5 h -1 v -5 h -1 v -1 H 829 v -1 h -1 v -3 h -1 v -6 h -1 v -5 h -1 v -6 h -1 v -6 h -1 v -6 h -1 v -6 h -1 v -7 h 146 v 3 h 1 v 6 h 1 v 5 h 1 v 6 h 1 v 5 h 1 v 6 h 1 v 3 h 29 v -1 h 27 v -1 h 20 v -1 h 1 v -8 h -1 v -5 h -1 v -6 h -1 v -6 h -1 v -5 h -1 v -6 h -1 v -6 h -1 v -5 h -1 v -6 h -1 v -6 h -1 v -5 h -1 v -6 h -1 v -6 h -1 v -5 h -1 v -6 h -1 v -4 h -1 v -1 h -83 v -1 h -1 v -2 h 1 v -2 h 1 v -1 h 1 v -2 h 1 v -1 h 1 v -2 h 1 v -2 h 1 v -1 h 1 v -2 h 1 v -2 h 1 v -1 h 1 v -2 h 1 v -2 h 1 v -1 h 1 v -2 h 1 v -2 h 1 v -1 h 1 v -2 h 1 v -2 h 1 v -1 h 1 v -2 h 1 v -2 h 1 v -1 h 1 v -2 h 1 v -2 h 1 v -1 h 1 v -2 h 1 v -2 h 1 v -1 h 1 v -2 h 1 v -2 h 1 v -1 h 1 v -2 h 1 v -1 h 1 v -2 h 1 v -2 h 1 v -1 h 1 v -2 h 1 v -2 h 1 v -1 h 1 v -2 h 1 v -2 h 1 v -1 h 1 v -2 h 1 v -2 h 1 v -1 h 1 v -2 h 1 v -2 h 1 v -1 h 1 v -2 h 1 v -2 h 1 v -1 h 1 v -2 h 1 v -2 h 1 v -1 h 1 v -2 h 1 v -2 h 1 v -1 h 1 v -2 h 1 v -5 h -2 v -1 h -87 v 1 h -1 v 1 h -1 v 2 h -1 v 1 h -1 v 2 h -1 v 2 h -1 v 1 h -1 v 2 h -1 v 2 h -1 v 1 h -1 v 2 h -1 v 2 h -1 v 1 h -1 v 2 h -1 v 2 h -1 v 1 h -1 v 2 h -1 v 2 h -1 v 1 h -1 v 2 h -1 v 2 h -1 v 1 h -1 v 2 h -1 v 2 h -1 v 1 h -1 v 2 h -1 v 2 h -1 v 1 h -1 v 2 h -1 v 2 h -1 v 1 h -1 v 2 h -1 v 2 h -1 v 1 h -1 v 2 h -1 v 2 h -1 v 1 h -1 v 2 h -1 v 2 h -1 v 1 h -1 v 2 h -1 v 2 h -1 v 1 h -1 v 2 h -1 v 2 h -1 v 1 h -1 v 2 h -1 v 2 h -1 v 1 h -1 v 2 h -1 v 2 h -1 v 1 h -1 v 2 h -1 v 2 h -1 v 1 h -1 v 2 h -1 v 2 h -1 v 1 h -1 v 2 h -1 v 2 h -1 v 1 h -1 v 2 h -1 v 2 h -1 v 1 h -47 v -1 h -1 v -5 h -1 v -5 h -1 v -6 h -1 v -6 h -1 v -5 h -1 v -6 h -1 v -6 h -1 v -5 h -1 v -6 h -1 v -6 h -1 v -5 h -1 v -6 h -1 v -6 h -1 v -5 h -1 v -6 h -1 v -6 h -1 v -6 h -1 v -5 h -1 v -2 h -2 v -1 z m 406,0 v 1 h -1 v 1 h -1 v 1 h -1 v 1 h -1 v 2 h -1 v 1 h -1 v 1 h -1 v 2 h -1 v 1 h -1 v 1 h -1 v 2 h -1 v 1 h -1 v 1 h -1 v 2 h -1 v 1 h -1 v 1 h -1 v 1 h -1 v 2 h -1 v 1 h -1 v 1 h -1 v 2 h -1 v 1 h -1 v 1 h -1 v 2 h -1 v 1 h -1 v 1 h -1 v 2 h -1 v 1 h -1 v 1 h -1 v 1 h -1 v 2 h -1 v 1 h -1 v 1 h -1 v 2 h -1 v 1 h -1 v 7 h 1 v 5 h 1 v 6 h 1 v 6 h 1 v 5 h 1 v 6 h 1 v 6 h 1 v 5 h 1 v 6 h 1 v 6 h 1 v 5 h 1 v 6 h 1 v 6 h 1 v 5 h 1 v 6 h 1 v 6 h 1 v 6 h 1 v 5 h 1 v 6 h 1 v 6 h 1 v 5 h 1 v 6 h 1 v 6 h 1 v 5 h 1 v 6 h 1 v 5 h 1 v 2 h 24 v -1 h 27 v -1 h 26 v -1 h 3 v -1 h 1 v -4 h -1 v -5 h -1 v -6 h -1 v -6 h -1 v -5 h -1 v -6 h -1 v -6 h -1 v -5 h -1 v -6 h -1 v -5 h -1 v -6 h -1 v -6 h -1 v -5 h -1 v -6 h -1 v -6 h -1 v -5 h -1 v -6 h -1 v -6 h -1 v -5 h -1 v -6 h 1 v -1 h 141 v 2 h 1 v 4 h 1 v 6 h 1 v 6 h 1 v 5 h 1 v 6 h 1 v 6 h 1 v 5 h 1 v 6 h 1 v 6 h 1 v 5 h 1 v 6 h 1 v 6 h 1 v 5 h 1 v 6 h 1 v 6 h 1 v 5 h 1 v 6 h 1 v 6 h 1 v 3 h 1 v 1 h 1 v 1 h 12 v -1 h 26 v -1 h 26 v -1 h 12 v -1 h 1 v -5 h -1 v -5 h -1 v -6 h -1 v -6 h -1 v -5 h -1 v -6 h -1 v -6 h -1 v -5 h -1 v -6 h -1 v -5 h -1 v -6 h -1 v -6 h -1 v -5 h -1 v -6 h -1 v -6 h -1 v -5 h -1 v -6 h -1 v -6 h -1 v -5 h -1 v -6 h -1 v -5 h -1 v -6 h -1 v -6 h -1 v -5 h -1 v -6 h -1 v -6 h -1 v -5 h -1 v -6 h -1 v -6 h -1 v -5 h -1 v -6 h -1 v -6 h -1 v -2 h -2 v -1 z m 367,0 v 1 h -2 v 2 h -1 v 1 h -1 v 1 h -1 v 2 h -1 v 1 h -1 v 1 h -1 v 2 h -1 v 1 h -1 v 1 h -1 v 2 h -1 v 1 h -1 v 1 h -1 v 2 h -1 v 1 h -1 v 1 h -1 v 2 h -1 v 1 h -1 v 1 h -1 v 2 h -1 v 1 h -1 v 1 h -1 v 1 h -1 v 2 h -1 v 1 h -1 v 1 h -1 v 2 h -1 v 1 h -1 v 1 h -1 v 2 h -1 v 1 h -1 v 1 h -1 v 2 h -1 v 1 h -1 v 1 h -1 v 2 h -1 v 5 h 1 v 6 h 1 v 5 h 1 v 6 h 1 v 6 h 1 v 5 h 1 v 6 h 1 v 6 h 1 v 5 h 1 v 6 h 1 v 6 h 1 v 5 h 1 v 6 h 1 v 5 h 1 v 6 h 1 v 6 h 1 v 5 h 1 v 6 h 1 v 6 h 1 v 5 h 1 v 6 h 1 v 6 h 1 v 5 h 1 v 3 h 1 v 1 h 1 v 1 h 3 v -1 h 26 v -1 h 26 v -1 h 22 v -1 h 2 v -7 h -1 v -5 h -1 v -6 h -1 v -6 h -1 v -5 h -1 v -6 h -1 v -6 h -1 v -5 h -1 v -6 h -1 v -6 h -1 v -5 h -1 v -6 h -1 v -6 h -1 v -5 h -1 v -6 h -1 v -6 h -1 v -7 h 220 v -1 h 1 v -9 h -1 v -5 h -1 v -6 h -1 v -6 h -1 v -6 h -1 v -5 h -1 v -6 h -1 v -6 h -1 v -5 h -1 v -6 h -1 v -6 h -1 v -5 h -1 v -5 h -1 v -1 h -1 v -1 z m 365,0 v 1 h -2 v 1 h -1 v 1 h -1 v 2 h -1 v 1 h -1 v 1 h -1 v 2 h -1 v 1 h -1 v 1 h -1 v 2 h -1 v 1 h -1 v 1 h -1 v 2 h -1 v 1 h -1 v 1 h -1 v 2 h -1 v 1 h -1 v 1 h -1 v 2 h -1 v 1 h -1 v 1 h -1 v 1 h -1 v 2 h -1 v 1 h -1 v 1 h -1 v 2 h -1 v 1 h -1 v 1 h -1 v 2 h -1 v 1 h -1 v 1 h -1 v 2 h -1 v 1 h -1 v 1 h -1 v 2 h -1 v 1 h -1 v 9 h 1 v 6 h 1 v 5 h 1 v 6 h 1 v 6 h 1 v 6 h 1 v 5 h 1 v 6 h 1 v 6 h 1 v 5 h 1 v 6 h 1 v 6 h 1 v 5 h 1 v 6 h 1 v 6 h 1 v 5 h 1 v 6 h 1 v 6 h 1 v 5 h 1 v 6 h 1 v 3 h 1 v 1 h 13 v -1 h 27 v -1 h 27 v -1 h 12 v -1 h 1 v -6 h -1 v -6 h -1 v -5 h -1 v -6 h -1 v -6 h -1 v -5 h -1 v -6 h -1 v -6 h -1 v -6 h -1 v -5 h -1 v -6 h -1 v -6 h -1 v -6 h -1 v -5 h -1 v -4 h 1 v -1 h 220 v -1 h 1 v -6 h -1 v -6 h -1 v -5 h -1 v -6 h -1 v -6 h -1 v -5 h -1 v -6 h -1 v -6 h -1 v -5 h -1 v -6 h -1 v -6 h -1 v -5 h -1 v -6 h -1 v -3 h -2 v -1 z m 319,0 v 1 h -1 v 1 h -1 v 3 h 1 v 6 h 1 v 5 h 1 v 6 h 1 v 6 h 1 v 5 h 1 v 6 h 1 v 6 h 1 v 5 h 1 v 6 h 1 v 6 h 1 v 5 h 1 v 6 h 1 v 6 h 1 v 5 h 1 v 6 h 1 v 6 h 1 v 5 h 1 v 6 h 1 v 6 h 1 v 5 h 1 v 6 h 1 v 6 h 1 v 5 h 1 v 6 h 1 v 6 h 1 v 5 h 1 v 2 h 21 v -1 h 26 v -1 h 26 v -1 h 27 v -1 h 26 v -1 h 27 v -1 h 26 v -1 h 27 v -1 h 26 v -1 h 27 v -1 h 26 v -1 h 17 v -1 h 1 v -9 h -1 v -5 h -1 v -6 h -1 v -6 h -1 v -5 h -1 v -6 h -1 v -6 h -1 v -5 h -1 v -6 h -1 v -6 h -1 v -5 h -1 v -6 h -1 v -6 h -1 v -5 h -1 v -6 h -1 v -6 h -1 v -5 h -1 v -6 h -1 v -6 h -1 v -6 h -1 v -5 h -1 v -6 h -1 v -6 h -1 v -5 h -1 v -2 h -2 v -1 h -77 v 1 h -2 v 6 h 1 v 6 h 1 v 6 h 1 v 5 h 1 v 6 h 1 v 6 h 1 v 5 h 1 v 6 h 1 v 6 h 1 v 5 h 1 v 6 h 1 v 5 h 1 v 6 h 1 v 6 h 1 v 4 h -1 v 1 h -141 v -2 h -1 v -5 h -1 v -6 h -1 v -5 h -1 v -6 h -1 v -6 h -1 v -6 h -1 v -5 h -1 v -6 h -1 v -6 h -1 v -5 h -1 v -6 h -1 v -6 h -1 v -6 h -1 v -5 h -1 v -4 h -2 v -1 z m 474,0 v 1 h -1 v 1 h -1 v 5 h 1 v 5 h 1 v 6 h 1 v 6 h 1 v 5 h 1 v 6 h 1 v 6 h 1 v 5 h 1 v 6 h 1 v 6 h 1 v 5 h 1 v 6 h 1 v 6 h 1 v 5 h 1 v 6 h 1 v 6 h 1 v 5 h 1 v 6 h 1 v 6 h 1 v 5 h 1 v 6 h 1 v 6 h 1 v 5 h 1 v 4 h 1 v 1 h 18 v -1 h 27 v -1 h 26 v -1 h 6 v -1 h 1 v -4 h -1 v -5 h -1 v -6 h -1 v -6 h -1 v -6 h -1 v -5 h -1 v -6 h -1 v -6 h -1 v -6 h -1 v -5 h -1 v -6 h -1 v -6 h -1 v -5 h -1 v -6 h -1 v -6 h -1 v -6 h -1 v -5 h -1 v -6 h -1 v -6 h -1 v -5 h -1 v -6 h -1 v -6 h -1 v -6 h -1 v -1 h -2 v -1 z m 139,1 v 1 h -3 v 1 h -2 v 1 h -1 v 1 h -2 v 1 h -1 v 1 h -2 v 1 h -1 v 2 h -1 v 1 h -1 v 2 h -1 v 1 h -1 v 3 h -1 v 4 h -1 v 9 h 1 v 5 h 1 v 3 h 1 v 2 h 1 v 2 h 1 v 2 h 1 v 1 h 1 v 2 h 1 v 1 h 1 v 1 h 1 v 1 h 1 v 2 h 1 v 1 h 2 v 1 h 1 v 1 h 1 v 1 h 1 v 1 h 2 v 1 h 2 v 1 h 2 v 1 h 2 v 1 h 3 v 1 h 3 v 1 h 15 v -1 h 3 v -1 h 2 v -1 h 1 v -1 h 2 v -1 h 2 v -1 h 1 v -1 h 1 v -2 h 1 v -1 h 1 v -2 h 1 v -1 h 1 v -2 h 1 v -4 h 1 v -12 h -1 v -3 h -1 v -3 h -1 v -3 h -1 v -2 h -1 v -1 h -1 v -2 h -1 v -1 h -1 v -1 h -1 v -2 h -1 v -1 h -1 v -1 h -1 v -1 h -1 v -1 h -2 v -1 h -1 v -1 h -1 v -1 h -2 v -1 h -1 v -1 h -2 v -1 h -2 v -1 h -3 v -1 h -3 v -1 z m 4,7 v -1 h 10 v 1 h 3 v 1 h 3 v 1 h 2 v 1 h 2 v 1 h 1 v 1 h 2 v 1 h 1 v 1 h 1 v 1 h 1 v 1 h 1 v 1 h 1 v 1 h 1 v 1 h 1 v 2 h 1 v 2 h 1 v 1 h 1 v 3 h 1 v 3 h 1 v 11 h -1 v 3 h -1 v 2 h -1 v 1 h -1 v 2 h -1 v 1 h -1 v 1 h -2 v 1 h -1 v 1 h -2 v 1 h -2 v 1 h -4 v 1 h -4 v -1 h -5 v -1 h -3 v -1 h -3 v -1 h -1 v -1 h -2 v -1 h -2 v -1 h -1 v -1 h -1 v -1 h -1 v -1 h -1 v -1 h -1 v -1 h -1 v -1 h -1 v -1 h -1 v -2 h -1 v -1 h -1 v -2 h -1 v -3 h -1 v -3 h -1 v -10 h 1 v -3 h 1 v -2 h 1 v -2 h 1 v -1 h 1 v -2 h 2 v -1 h 1 v -1 h 2 v -1 h 1 v -1 z m -8,7 v 4 h 1 v 4 h 1 v 5 h 1 v 5 h 1 v 4 h 1 v 5 h 1 v 5 h 1 v 3 h 20 v -1 h 5 v -1 h 2 v -1 h 1 v -3 h 1 v -3 h -1 v -5 h -1 v -3 h -1 v -2 h -1 v -1 h -2 v -2 h 1 v -2 h 1 v -3 h -1 v -5 h -1 v -3 h -10 v 2 h 1 v 5 h 1 v 1 h -1 v 1 h -1 v 1 h -9 v -5 h -1 v -5 z m 13,19 v -1 h 10 v 1 h 1 v 1 h 1 v 6 h -10 v -2 h -1 v -5 z M 72,419 v -1 h 3 v 1 h 4 v 1 h 4 v 1 h 4 v 1 h 5 v 1 h 4 v 1 h 4 v 1 h 2 v 2 h 1 v 1 h 1 v 2 h 1 v 1 h 1 v 1 h 1 v 2 h 1 v 1 h 1 v 2 h 1 v 1 h 1 v 2 h 1 v 1 h 1 v 1 h 1 v 2 h 1 v 1 h 1 v 2 h 1 v 1 h 1 v 2 h -3 v -1 h -4 v -1 h -3 v -1 h -4 v -1 h -2 v -1 h -2 v -1 h -3 v -1 h -2 v -1 h -2 v -1 h -2 v -1 h -1 v -1 h -2 v -1 h -2 v -1 h -1 v -1 h -1 v -1 h -1 v -1 h -1 v -1 h -1 v -1 h -2 v -1 h -1 v -2 h -1 v -1 h -1 v -2 h -1 v -1 h -1 v -2 h -1 v -2 h -1 z m 1043,33 v 2 h -1 v 2 h 1 v 6 h 1 v 6 h 1 v 6 h 1 v 5 h 1 v 6 h 1 v 6 h 1 v 6 h 1 v 5 h 1 v 6 h 1 v 6 h 1 v 6 h 1 v 5 h 1 v 4 h 1 v 1 h 248 v -1 h 1 v -2 h 1 v -1 h 1 v -1 h 1 v -1 h 1 v -2 h 1 v -1 h 1 v -1 h 1 v -1 h 1 v -2 h 1 v -1 h 1 v -1 h 1 v -1 h 1 v -2 h 1 v -1 h 1 v -1 h 1 v -1 h 1 v -2 h 1 v -1 h 1 v -1 h 1 v -1 h 1 v -2 h 1 v -1 h 1 v -1 h 1 v -1 h 1 v -2 h 1 v -1 h 1 v -1 h 1 v -1 h 1 v -2 h 1 v -1 h 1 v -1 h 1 v -1 h 1 v -2 h 1 v -1 h 1 v -1 h 1 v -1 h 1 v -2 h 1 v -1 h 1 v -1 h 1 v -1 h 1 v -2 h 1 v -1 h 1 v -1 h 1 v -1 h 1 v -10 h -1 v -6 h -1 v -4 h -1 v -2 z m 365,0 v 1 h -1 v 4 h 1 v 6 h 1 v 5 h 1 v 4 h 1 v 1 h 1 v 1 h 1 v 1 h 2 v 1 h 1 v 1 h 1 v 1 h 1 v 1 h 2 v 1 h 1 v 1 h 1 v 1 h 2 v 1 h 1 v 1 h 1 v 1 h 1 v 1 h 2 v 1 h 1 v 1 h 1 v 1 h 2 v 1 h 1 v 1 h 1 v 1 h 1 v 1 h 2 v 1 h 1 v 1 h 1 v 1 h 2 v 1 h 1 v 1 h 1 v 1 h 1 v 1 h 2 v 1 h 1 v 1 h 1 v 1 h 2 v 1 h 1 v 1 h 1 v 1 h 1 v 1 h 2 v 1 h 1 v 1 h 1 v 1 h 2 v 1 h 1 v 1 h 1 v 1 h 1 v 1 h 2 v 1 h 1 v 1 h 1 v 1 h 2 v 1 h 1 v 1 h 1 v 1 h 1 v 1 h 2 v 1 h 1 v 1 h 1 v 1 h 1 v 1 h 2 v 1 h 1 v 1 h 1 v 1 h 2 v 1 h 1 v 1 h 240 v -1 h 1 v -4 h -1 v -6 h -1 v -6 h -1 v -5 h -1 v -6 h -1 v -6 h -1 v -5 h -1 v -6 h -1 v -6 h -1 v -5 h -1 v -6 h -1 v -6 h -1 v -5 h -1 v -4 h -1 v -1 z m 365,0 v 1 h -1 v 8 h 1 v 5 h 1 v 5 h 1 v 2 h 1 v 1 h 2 v 1 h 1 v 1 h 1 v 1 h 2 v 1 h 1 v 1 h 1 v 1 h 1 v 1 h 2 v 1 h 1 v 1 h 1 v 1 h 2 v 1 h 1 v 1 h 1 v 1 h 1 v 1 h 2 v 1 h 1 v 1 h 1 v 1 h 2 v 1 h 1 v 1 h 1 v 1 h 1 v 1 h 2 v 1 h 1 v 1 h 1 v 1 h 2 v 1 h 1 v 1 h 1 v 1 h 1 v 1 h 2 v 1 h 1 v 1 h 1 v 1 h 2 v 1 h 1 v 1 h 1 v 1 h 1 v 1 h 2 v 1 h 1 v 1 h 1 v 1 h 2 v 1 h 1 v 1 h 1 v 1 h 1 v 1 h 2 v 1 h 1 v 1 h 1 v 1 h 2 v 1 h 1 v 1 h 1 v 1 h 1 v 1 h 2 v 1 h 1 v 1 h 1 v 1 h 2 v 1 h 1 v 1 h 1 v 1 h 1 v 1 h 241 v -8 h -1 v -6 h -1 v -5 h -1 v -6 h -1 v -6 h -1 v -6 h -1 v -5 h -1 v -6 h -1 v -6 h -1 v -5 h -1 v -6 h -1 v -6 h -1 v -5 h -1 v -2 z m 363,0 v 1 h -1 v 8 h 1 v 5 h 1 v 5 h 1 v 2 h 1 v 1 h 2 v 1 h 1 v 1 h 1 v 1 h 2 v 1 h 1 v 1 h 1 v 1 h 1 v 1 h 2 v 1 h 1 v 1 h 1 v 1 h 2 v 1 h 1 v 1 h 1 v 1 h 1 v 1 h 2 v 1 h 1 v 1 h 1 v 1 h 2 v 1 h 1 v 1 h 1 v 1 h 1 v 1 h 2 v 1 h 1 v 1 h 1 v 1 h 2 v 1 h 1 v 1 h 1 v 1 h 1 v 1 h 2 v 1 h 1 v 1 h 1 v 1 h 2 v 1 h 1 v 1 h 1 v 1 h 1 v 1 h 2 v 1 h 1 v 1 h 1 v 1 h 1 v 1 h 2 v 1 h 1 v 1 h 1 v 1 h 2 v 1 h 1 v 1 h 1 v 1 h 1 v 1 h 2 v 1 h 1 v 1 h 1 v 1 h 2 v 1 h 1 v 1 h 1 v 1 h 1 v 1 h 2 v 1 h 1 v 1 h 1 v 1 h 242 v -9 h -1 v -6 h -1 v -6 h -1 v -5 h -1 v -6 h -1 v -6 h -1 v -5 h -1 v -6 h -1 v -6 h -1 v -5 h -1 v -6 h -1 v -6 h -1 v -4 h -1 v -2 z m 361,0 v 1 h -1 v 6 h 1 v 5 h 1 v 6 h 1 v 6 h 1 v 5 h 1 v 6 h 1 v 6 h 1 v 5 h 1 v 6 h 1 v 6 h 1 v 5 h 1 v 6 h 1 v 6 h 1 v 3 h 302 v -12 h -1 v -6 h -1 v -5 h -1 v -6 h -1 v -6 h -1 v -5 h -1 v -6 h -1 v -6 h -1 v -5 h -1 v -6 h -1 v -6 h -1 v -5 h -1 v -3 h -1 v -1" /></g></g></g><path
         id="path36"
         style="fill:#000000;fill-opacity:1;fill-rule:nonzero;stroke:none"
         d="m 722.234,109.863 c -0.425,-2.808 -0.562,-3.933 -0.562,-5.48 0,-2.813 1.824,-4.7775 4.641,-5.34 2.953,-0.5625 11.656,-1.125 19.675,-1.125 13.211,0 26.696,0.4258 30.637,0.8437 9.695,1.125 13.484,4.3593 13.484,11.5193 0,2.953 -1.398,5.063 -3.789,5.907 -3.09,1.125 -3.242,1.125 -19.953,1.261 H 737.27 c -14.336,0 -23.196,0.848 -28.247,2.391 -7.871,2.531 -11.808,7.875 -11.808,16.308 0,12.219 4.777,27.543 10.82,34.153 8.719,9.691 22.067,12.082 63.25,12.082 31.473,0 39.203,-0.699 46.938,-3.653 6.465,-2.535 9.695,-7.73 9.695,-15.601 0,-3.797 -0.414,-7.594 -1.965,-13.774 h -31.199 c 0.273,1.684 0.562,2.809 0.562,3.657 0,5.621 -3.793,6.883 -22.343,6.883 -13.075,0 -27.133,-0.563 -32.188,-0.981 -6.469,-0.562 -10.394,-4.777 -10.394,-10.82 0,-2.25 0.972,-3.797 2.386,-4.778 2.664,-1.691 2.801,-1.828 15.602,-2.109 h 29.785 c 1.824,0 7.305,-0.144 15.75,-0.426 11.66,-0.418 15.313,-0.98 19.953,-3.234 6.317,-2.672 9.422,-7.867 9.422,-15.879 0,-11.941 -4.367,-26.4219 -10.41,-33.5899 -8.57,-10.1133 -21.918,-12.6484 -65.777,-12.6484 -27.821,0 -36.391,0.5625 -44.547,2.2539 -9.832,2.2422 -14.188,7.3047 -14.188,16.0156 0,4.7813 0.414,8.0158 2.528,16.1638 h 31.339" /><path
         id="path38"
         style="fill:#000000;fill-opacity:1;fill-rule:nonzero;stroke:none"
         d="m 978.543,181.684 -5.066,-23.895 h -85.032 l -3.925,-18.133 h 80.386 l -4.351,-20.937 h -80.539 l -3.926,-18.551 h 86.293 l -5.07,-23.8946 H 839.547 l 22.344,105.4106 h 116.652" /><path
         id="path40"
         style="fill:#000000;fill-opacity:1;fill-rule:nonzero;stroke:none"
         d="m 1041.92,155.535 h -46.94 l 5.62,26.149 h 125.79 l -5.48,-26.149 h -46.94 l -16.88,-79.2616 h -32.03 l 16.86,79.2616" /><path
         id="path42"
         style="fill:#000000;fill-opacity:1;fill-rule:nonzero;stroke:none"
         d="m 1235.95,171 h -53.54 l 2.25,10.684 h 119.46 L 1302.01,171 h -53.41 l -20.24,-94.7266 h -12.65 L 1235.95,171" /><path
         id="path44"
         style="fill:#000000;fill-opacity:1;fill-rule:nonzero;stroke:none"
         d="m 1322.84,181.684 h 12.65 l -9.85,-46.098 h 98.8 l 9.7,46.098 h 12.64 L 1424.44,76.2734 h -12.64 l 10.39,49.3316 h -98.79 l -10.41,-49.3316 h -12.65 l 22.5,105.4106" /><path
         id="path46"
         style="fill:#000000;fill-opacity:1;fill-rule:nonzero;stroke:none"
         d="m 1471.38,181.684 h 104.84 L 1574.11,171 h -92.34 l -7.59,-35.137 h 88.97 l -2.25,-9.98 h -88.68 l -8.43,-39.0705 h 93.03 l -2.24,-10.5391 h -105.69 l 22.49,105.4106" /><path
         id="path48"
         style="fill:#000000;fill-opacity:1;fill-rule:nonzero;stroke:none"
         d="m 1717.13,128.555 c 9.28,0 12.94,0.562 16.03,2.668 2.52,1.691 3.65,3.933 4.91,9.14 0.56,3.09 1.13,6.461 1.13,8.149 0,3.371 -1.69,5.48 -4.78,6.461 -2.53,0.843 -3.52,0.707 -10.4,0.707 h -51.3 l -5.9,-27.125 z m -70.83,53.129 h 90.8 c 28.09,0 36.25,-4.641 36.25,-20.379 0,-12.938 -4.22,-27.129 -10.26,-34.578 -5.2,-6.18 -10.12,-8.153 -27.12,-10.539 2.24,-0.137 4.35,-0.282 4.92,-0.282 8.99,-0.418 12.64,-1.265 15.46,-3.652 2.53,-2.109 3.65,-5.344 3.65,-10.258 0,-2.3905 -0.29,-4.4999 -1.26,-9.1405 l -3.52,-16.5821 h -32.46 l 2.66,13.0743 c 0.43,2.1054 0.84,4.2148 0.84,5.7617 0,3.5117 -1.54,5.6206 -4.49,6.7426 -1.69,0.562 -4.78,0.988 -10.96,0.988 h -49.34 l -5.61,-26.5666 h -31.9 l 22.34,105.4106" /><path
         id="path50"
         style="fill:#000000;fill-opacity:1;fill-rule:nonzero;stroke:none"
         d="m 1837.45,181.684 -9.71,-45.821 c -0.27,-1.687 -0.83,-3.797 -1.4,-6.32 -2.25,-10.121 -2.81,-13.773 -2.81,-17.43 0,-9.136 5.9,-11.527 28.11,-11.527 20.38,0 28.53,0.699 32.89,2.391 6.33,2.671 9.13,7.867 12.08,22.906 0.43,2.25 0.99,4.922 1.41,7.449 l 10.4,48.352 h 32.19 l -11.81,-55.375 c -3.52,-16.446 -4.51,-20.243 -7.44,-26.9848 -6.06,-13.6367 -20.25,-22.207 -37.96,-23.332 -5.62,-0.2813 -19.95,-0.6992 -33.45,-0.6992 -30.21,0 -39.07,0.6992 -46.51,3.789 -9,3.6602 -13.78,10.6836 -13.78,20.0977 0,7.3123 0.7,11.6643 3.66,25.7183 l 12.08,56.786 h 32.05" /><path
         id="path52"
         style="fill:#000000;fill-opacity:1;fill-rule:nonzero;stroke:none"
         d="m 1967.23,181.684 h 32.06 l -16.88,-79.407 h 72.52 l -5.48,-26.0036 h -104.56 l 22.34,105.4106" /><path
         id="path54"
         style="fill:#000000;fill-opacity:1;fill-rule:nonzero;stroke:none"
         d="m 2211.94,181.684 -5.06,-23.895 h -85.03 l -3.93,-18.133 h 80.39 l -4.36,-20.937 h -80.54 l -3.92,-18.551 h 86.29 l -5.07,-23.8946 h -117.76 l 22.34,105.4106 h 116.65" /><path
         id="path56"
         style="fill:#000000;fill-opacity:1;fill-rule:nonzero;stroke:none"
         d="m 2252.48,109.863 c -0.43,-2.808 -0.56,-3.933 -0.56,-5.48 0,-2.813 1.82,-4.7775 4.64,-5.34 2.95,-0.5625 11.66,-1.125 19.68,-1.125 13.21,0 26.69,0.4258 30.63,0.8437 9.7,1.125 13.49,4.3593 13.49,11.5193 0,2.953 -1.4,5.063 -3.79,5.907 -3.09,1.125 -3.23,1.125 -19.95,1.261 h -29.1 c -14.34,0 -23.2,0.848 -28.25,2.391 -7.87,2.531 -11.81,7.875 -11.81,16.308 0,12.219 4.78,27.543 10.82,34.153 8.72,9.691 22.07,12.082 63.25,12.082 31.48,0 39.21,-0.699 46.94,-3.653 6.47,-2.535 9.69,-7.73 9.69,-15.601 0,-3.797 -0.41,-7.594 -1.96,-13.774 H 2325 c 0.27,1.684 0.56,2.809 0.56,3.657 0,5.621 -3.79,6.883 -22.34,6.883 -13.07,0 -27.13,-0.563 -32.19,-0.981 -6.47,-0.562 -10.39,-4.777 -10.39,-10.82 0,-2.25 0.97,-3.797 2.39,-4.778 2.66,-1.691 2.8,-1.828 15.6,-2.109 h 29.78 c 1.83,0 7.31,-0.144 15.75,-0.426 11.66,-0.418 15.31,-0.98 19.95,-3.234 6.32,-2.672 9.43,-7.867 9.43,-15.879 0,-11.941 -4.37,-26.4219 -10.41,-33.5899 -8.57,-10.1133 -21.92,-12.6484 -65.77,-12.6484 -27.83,0 -36.4,0.5625 -44.56,2.2539 -9.83,2.2422 -14.18,7.3047 -14.18,16.0156 0,4.7813 0.41,8.0158 2.52,16.1638 h 31.34" /><path
         id="path58"
         style="fill:#000000;fill-opacity:1;fill-rule:nonzero;stroke:none"
         d="m 2401.52,76.2734 h -31.49 l 6.33,29.3746 h 31.2 l -6.04,-29.3746" /></g></g></svg>
